<?xml version="1.0" encoding="UTF-8" standalone="no"?>
<!-- Created with Inkscape (http://www.inkscape.org/) -->

<svg
   xmlns:dc="http://purl.org/dc/elements/1.1/"
   xmlns:cc="http://creativecommons.org/ns#"
   xmlns:rdf="http://www.w3.org/1999/02/22-rdf-syntax-ns#"
   xmlns:svg="http://www.w3.org/2000/svg"
   xmlns="http://www.w3.org/2000/svg"
   xmlns:sodipodi="http://sodipodi.sourceforge.net/DTD/sodipodi-0.dtd"
   xmlns:inkscape="http://www.inkscape.org/namespaces/inkscape"
   width="62.766083mm"
   height="37.319851mm"
   viewBox="0 0 62.766083 37.31985"
   version="1.1"
   id="svg8"
   inkscape:version="0.92.0 r15299"
   sodipodi:docname="DNA_FSM_BE.svg">
  <defs
     id="defs2">
    <marker
       inkscape:isstock="true"
       style="overflow:visible"
       id="marker7337"
       refX="0"
       refY="0"
       orient="auto"
       inkscape:stockid="Arrow2Mstart">
      <path
         transform="scale(0.6)"
         d="M 8.7185878,4.0337352 -2.2072895,0.01601326 8.7185884,-4.0017078 c -1.7454984,2.3720609 -1.7354408,5.6174519 -6e-7,8.035443 z"
         style="fill:#000000;fill-opacity:1;fill-rule:evenodd;stroke:#000000;stroke-width:0.625;stroke-linejoin:round;stroke-opacity:1"
         id="path7335"
         inkscape:connector-curvature="0" />
    </marker>
    <marker
       inkscape:stockid="Arrow2Mstart"
       orient="auto"
       refY="0"
       refX="0"
       id="marker7153"
       style="overflow:visible"
       inkscape:isstock="true"
       inkscape:collect="always">
      <path
         inkscape:connector-curvature="0"
         id="path7151"
         style="fill:#000000;fill-opacity:1;fill-rule:evenodd;stroke:#000000;stroke-width:0.625;stroke-linejoin:round;stroke-opacity:1"
         d="M 8.7185878,4.0337352 -2.2072895,0.01601326 8.7185884,-4.0017078 c -1.7454984,2.3720609 -1.7354408,5.6174519 -6e-7,8.035443 z"
         transform="scale(0.6)" />
    </marker>
    <marker
       inkscape:isstock="true"
       style="overflow:visible"
       id="marker6975"
       refX="0"
       refY="0"
       orient="auto"
       inkscape:stockid="Arrow2Mstart"
       inkscape:collect="always">
      <path
         transform="scale(0.6)"
         d="M 8.7185878,4.0337352 -2.2072895,0.01601326 8.7185884,-4.0017078 c -1.7454984,2.3720609 -1.7354408,5.6174519 -6e-7,8.035443 z"
         style="fill:#000000;fill-opacity:1;fill-rule:evenodd;stroke:#000000;stroke-width:0.625;stroke-linejoin:round;stroke-opacity:1"
         id="path6973"
         inkscape:connector-curvature="0" />
    </marker>
    <marker
       inkscape:stockid="Arrow2Mstart"
       orient="auto"
       refY="0"
       refX="0"
       id="marker6821"
       style="overflow:visible"
       inkscape:isstock="true"
       inkscape:collect="always">
      <path
         inkscape:connector-curvature="0"
         id="path6819"
         style="fill:#000000;fill-opacity:1;fill-rule:evenodd;stroke:#000000;stroke-width:0.625;stroke-linejoin:round;stroke-opacity:1"
         d="M 8.7185878,4.0337352 -2.2072895,0.01601326 8.7185884,-4.0017078 c -1.7454984,2.3720609 -1.7354408,5.6174519 -6e-7,8.035443 z"
         transform="scale(0.6)" />
    </marker>
    <marker
       inkscape:stockid="Arrow2Mend"
       orient="auto"
       refY="0"
       refX="0"
       id="marker6325"
       style="overflow:visible"
       inkscape:isstock="true">
      <path
         id="path6323"
         style="fill:#000000;fill-opacity:1;fill-rule:evenodd;stroke:#000000;stroke-width:0.625;stroke-linejoin:round;stroke-opacity:1"
         d="M 8.7185878,4.0337352 -2.2072895,0.01601326 8.7185884,-4.0017078 c -1.7454984,2.3720609 -1.7354408,5.6174519 -6e-7,8.035443 z"
         transform="scale(-0.6)"
         inkscape:connector-curvature="0" />
    </marker>
    <marker
       inkscape:isstock="true"
       style="overflow:visible"
       id="marker6207"
       refX="0"
       refY="0"
       orient="auto"
       inkscape:stockid="Arrow2Mend"
       inkscape:collect="always">
      <path
         inkscape:connector-curvature="0"
         transform="scale(-0.6)"
         d="M 8.7185878,4.0337352 -2.2072895,0.01601326 8.7185884,-4.0017078 c -1.7454984,2.3720609 -1.7354408,5.6174519 -6e-7,8.035443 z"
         style="fill:#000000;fill-opacity:1;fill-rule:evenodd;stroke:#000000;stroke-width:0.625;stroke-linejoin:round;stroke-opacity:1"
         id="path6205" />
    </marker>
    <marker
       inkscape:stockid="Arrow2Mend"
       orient="auto"
       refY="0"
       refX="0"
       id="marker6095"
       style="overflow:visible"
       inkscape:isstock="true">
      <path
         inkscape:connector-curvature="0"
         id="path6093"
         style="fill:#000000;fill-opacity:1;fill-rule:evenodd;stroke:#000000;stroke-width:0.625;stroke-linejoin:round;stroke-opacity:1"
         d="M 8.7185878,4.0337352 -2.2072895,0.01601326 8.7185884,-4.0017078 c -1.7454984,2.3720609 -1.7354408,5.6174519 -6e-7,8.035443 z"
         transform="scale(-0.6)" />
    </marker>
    <marker
       inkscape:stockid="Arrow2Mend"
       orient="auto"
       refY="0"
       refX="0"
       id="marker5989"
       style="overflow:visible"
       inkscape:isstock="true">
      <path
         inkscape:connector-curvature="0"
         id="path5987"
         style="fill:#000000;fill-opacity:1;fill-rule:evenodd;stroke:#000000;stroke-width:0.625;stroke-linejoin:round;stroke-opacity:1"
         d="M 8.7185878,4.0337352 -2.2072895,0.01601326 8.7185884,-4.0017078 c -1.7454984,2.3720609 -1.7354408,5.6174519 -6e-7,8.035443 z"
         transform="scale(-0.6)" />
    </marker>
    <marker
       inkscape:stockid="Arrow2Mend"
       orient="auto"
       refY="0"
       refX="0"
       id="marker5650"
       style="overflow:visible"
       inkscape:isstock="true">
      <path
         id="path5648"
         style="fill:#000000;fill-opacity:1;fill-rule:evenodd;stroke:#000000;stroke-width:0.625;stroke-linejoin:round;stroke-opacity:1"
         d="M 8.7185878,4.0337352 -2.2072895,0.01601326 8.7185884,-4.0017078 c -1.7454984,2.3720609 -1.7354408,5.6174519 -6e-7,8.035443 z"
         transform="scale(-0.6)"
         inkscape:connector-curvature="0" />
    </marker>
    <marker
       inkscape:isstock="true"
       style="overflow:visible"
       id="marker5556"
       refX="0"
       refY="0"
       orient="auto"
       inkscape:stockid="Arrow2Mstart">
      <path
         transform="scale(0.6)"
         d="M 8.7185878,4.0337352 -2.2072895,0.01601326 8.7185884,-4.0017078 c -1.7454984,2.3720609 -1.7354408,5.6174519 -6e-7,8.035443 z"
         style="fill:#000000;fill-opacity:1;fill-rule:evenodd;stroke:#000000;stroke-width:0.625;stroke-linejoin:round;stroke-opacity:1"
         id="path5554"
         inkscape:connector-curvature="0" />
    </marker>
    <marker
       inkscape:stockid="Arrow2Mstart"
       orient="auto"
       refY="0"
       refX="0"
       id="marker5468"
       style="overflow:visible"
       inkscape:isstock="true"
       inkscape:collect="always">
      <path
         id="path5466"
         style="fill:#000000;fill-opacity:1;fill-rule:evenodd;stroke:#000000;stroke-width:0.625;stroke-linejoin:round;stroke-opacity:1"
         d="M 8.7185878,4.0337352 -2.2072895,0.01601326 8.7185884,-4.0017078 c -1.7454984,2.3720609 -1.7354408,5.6174519 -6e-7,8.035443 z"
         transform="scale(0.6)"
         inkscape:connector-curvature="0" />
    </marker>
    <marker
       inkscape:isstock="true"
       style="overflow:visible"
       id="marker5386"
       refX="0"
       refY="0"
       orient="auto"
       inkscape:stockid="Arrow2Mend"
       inkscape:collect="always">
      <path
         transform="scale(-0.6)"
         d="M 8.7185878,4.0337352 -2.2072895,0.01601326 8.7185884,-4.0017078 c -1.7454984,2.3720609 -1.7354408,5.6174519 -6e-7,8.035443 z"
         style="fill:#000000;fill-opacity:1;fill-rule:evenodd;stroke:#000000;stroke-width:0.625;stroke-linejoin:round;stroke-opacity:1"
         id="path5384"
         inkscape:connector-curvature="0" />
    </marker>
    <marker
       inkscape:stockid="Arrow2Mend"
       orient="auto"
       refY="0"
       refX="0"
       id="marker5308"
       style="overflow:visible"
       inkscape:isstock="true"
       inkscape:collect="always">
      <path
         id="path5306"
         style="fill:#000000;fill-opacity:1;fill-rule:evenodd;stroke:#000000;stroke-width:0.625;stroke-linejoin:round;stroke-opacity:1"
         d="M 8.7185878,4.0337352 -2.2072895,0.01601326 8.7185884,-4.0017078 c -1.7454984,2.3720609 -1.7354408,5.6174519 -6e-7,8.035443 z"
         transform="scale(-0.6)"
         inkscape:connector-curvature="0" />
    </marker>
    <marker
       inkscape:isstock="true"
       style="overflow:visible"
       id="marker5238"
       refX="0"
       refY="0"
       orient="auto"
       inkscape:stockid="Arrow2Mstart"
       inkscape:collect="always">
      <path
         transform="scale(0.6)"
         d="M 8.7185878,4.0337352 -2.2072895,0.01601326 8.7185884,-4.0017078 c -1.7454984,2.3720609 -1.7354408,5.6174519 -6e-7,8.035443 z"
         style="fill:#000000;fill-opacity:1;fill-rule:evenodd;stroke:#000000;stroke-width:0.625;stroke-linejoin:round;stroke-opacity:1"
         id="path5236"
         inkscape:connector-curvature="0" />
    </marker>
    <marker
       inkscape:stockid="Arrow2Mstart"
       orient="auto"
       refY="0"
       refX="0"
       id="Arrow2Mstart"
       style="overflow:visible"
       inkscape:isstock="true"
       inkscape:collect="always">
      <path
         id="path4692"
         style="fill:#000000;fill-opacity:1;fill-rule:evenodd;stroke:#000000;stroke-width:0.625;stroke-linejoin:round;stroke-opacity:1"
         d="M 8.7185878,4.0337352 -2.2072895,0.01601326 8.7185884,-4.0017078 c -1.7454984,2.3720609 -1.7354408,5.6174519 -6e-7,8.035443 z"
         transform="scale(0.6)"
         inkscape:connector-curvature="0" />
    </marker>
    <marker
       inkscape:isstock="true"
       style="overflow:visible"
       id="marker5122"
       refX="0"
       refY="0"
       orient="auto"
       inkscape:stockid="Arrow2Mend"
       inkscape:collect="always">
      <path
         transform="scale(-0.6)"
         d="M 8.7185878,4.0337352 -2.2072895,0.01601326 8.7185884,-4.0017078 c -1.7454984,2.3720609 -1.7354408,5.6174519 -6e-7,8.035443 z"
         style="fill:#000000;fill-opacity:1;fill-rule:evenodd;stroke:#000000;stroke-width:0.625;stroke-linejoin:round;stroke-opacity:1"
         id="path5120"
         inkscape:connector-curvature="0" />
    </marker>
    <marker
       inkscape:stockid="Arrow2Mend"
       orient="auto"
       refY="0"
       refX="0"
       id="marker5070"
       style="overflow:visible"
       inkscape:isstock="true"
       inkscape:collect="always">
      <path
         id="path5068"
         style="fill:#000000;fill-opacity:1;fill-rule:evenodd;stroke:#000000;stroke-width:0.625;stroke-linejoin:round;stroke-opacity:1"
         d="M 8.7185878,4.0337352 -2.2072895,0.01601326 8.7185884,-4.0017078 c -1.7454984,2.3720609 -1.7354408,5.6174519 -6e-7,8.035443 z"
         transform="scale(-0.6)"
         inkscape:connector-curvature="0" />
    </marker>
    <marker
       inkscape:stockid="Arrow2Mend"
       orient="auto"
       refY="0"
       refX="0"
       id="marker5024"
       style="overflow:visible"
       inkscape:isstock="true">
      <path
         id="path5022"
         style="fill:#000000;fill-opacity:1;fill-rule:evenodd;stroke:#000000;stroke-width:0.625;stroke-linejoin:round;stroke-opacity:1"
         d="M 8.7185878,4.0337352 -2.2072895,0.01601326 8.7185884,-4.0017078 c -1.7454984,2.3720609 -1.7354408,5.6174519 -6e-7,8.035443 z"
         transform="scale(-0.6)"
         inkscape:connector-curvature="0" />
    </marker>
    <marker
       inkscape:isstock="true"
       style="overflow:visible"
       id="marker4984"
       refX="0"
       refY="0"
       orient="auto"
       inkscape:stockid="Arrow2Mend"
       inkscape:collect="always">
      <path
         transform="scale(-0.6)"
         d="M 8.7185878,4.0337352 -2.2072895,0.01601326 8.7185884,-4.0017078 c -1.7454984,2.3720609 -1.7354408,5.6174519 -6e-7,8.035443 z"
         style="fill:#000000;fill-opacity:1;fill-rule:evenodd;stroke:#000000;stroke-width:0.625;stroke-linejoin:round;stroke-opacity:1"
         id="path4982"
         inkscape:connector-curvature="0" />
    </marker>
    <marker
       inkscape:stockid="Arrow2Mend"
       orient="auto"
       refY="0"
       refX="0"
       id="Arrow2Mend"
       style="overflow:visible"
       inkscape:isstock="true"
       inkscape:collect="always">
      <path
         id="path4695"
         style="fill:#000000;fill-opacity:1;fill-rule:evenodd;stroke:#000000;stroke-width:0.625;stroke-linejoin:round;stroke-opacity:1"
         d="M 8.7185878,4.0337352 -2.2072895,0.01601326 8.7185884,-4.0017078 c -1.7454984,2.3720609 -1.7354408,5.6174519 -6e-7,8.035443 z"
         transform="scale(-0.6)"
         inkscape:connector-curvature="0" />
    </marker>
    <marker
       inkscape:stockid="Arrow2Lend"
       orient="auto"
       refY="0"
       refX="0"
       id="Arrow2Lend"
       style="overflow:visible"
       inkscape:isstock="true">
      <path
         id="path4689"
         style="fill:#000000;fill-opacity:1;fill-rule:evenodd;stroke:#000000;stroke-width:0.625;stroke-linejoin:round;stroke-opacity:1"
         d="M 8.7185878,4.0337352 -2.2072895,0.01601326 8.7185884,-4.0017078 c -1.7454984,2.3720609 -1.7354408,5.6174519 -6e-7,8.035443 z"
         transform="matrix(-1.1,0,0,-1.1,-1.1,0)"
         inkscape:connector-curvature="0" />
    </marker>
    <marker
       inkscape:stockid="Arrow2Mend"
       orient="auto"
       refY="0"
       refX="0"
       id="marker6325-7"
       style="overflow:visible"
       inkscape:isstock="true">
      <path
         id="path6323-4"
         style="fill:#000000;fill-opacity:1;fill-rule:evenodd;stroke:#000000;stroke-width:0.625;stroke-linejoin:round;stroke-opacity:1"
         d="M 8.7185878,4.0337352 -2.2072895,0.01601326 8.7185884,-4.0017078 c -1.7454984,2.3720609 -1.7354408,5.6174519 -6e-7,8.035443 z"
         transform="scale(-0.6)"
         inkscape:connector-curvature="0" />
    </marker>
    <marker
       inkscape:stockid="Arrow2Mend"
       orient="auto"
       refY="0"
       refX="0"
       id="marker6095-9"
       style="overflow:visible"
       inkscape:isstock="true">
      <path
         inkscape:connector-curvature="0"
         id="path6093-2"
         style="fill:#000000;fill-opacity:1;fill-rule:evenodd;stroke:#000000;stroke-width:0.625;stroke-linejoin:round;stroke-opacity:1"
         d="M 8.7185878,4.0337352 -2.2072895,0.01601326 8.7185884,-4.0017078 c -1.7454984,2.3720609 -1.7354408,5.6174519 -6e-7,8.035443 z"
         transform="scale(-0.6)" />
    </marker>
    <marker
       inkscape:stockid="Arrow2Mend"
       orient="auto"
       refY="0"
       refX="0"
       id="marker5989-4"
       style="overflow:visible"
       inkscape:isstock="true">
      <path
         inkscape:connector-curvature="0"
         id="path5987-4"
         style="fill:#000000;fill-opacity:1;fill-rule:evenodd;stroke:#000000;stroke-width:0.625;stroke-linejoin:round;stroke-opacity:1"
         d="M 8.7185878,4.0337352 -2.2072895,0.01601326 8.7185884,-4.0017078 c -1.7454984,2.3720609 -1.7354408,5.6174519 -6e-7,8.035443 z"
         transform="scale(-0.6)" />
    </marker>
  </defs>
  <sodipodi:namedview
     id="base"
     pagecolor="#ffffff"
     bordercolor="#666666"
     borderopacity="1.0"
     inkscape:pageopacity="0.0"
     inkscape:pageshadow="2"
     inkscape:zoom="2.8"
     inkscape:cx="147.21265"
     inkscape:cy="56.46047"
     inkscape:document-units="mm"
     inkscape:current-layer="layer1"
     showgrid="true"
     inkscape:snap-center="true"
     fit-margin-top="0"
     fit-margin-left="0"
     fit-margin-right="0"
     fit-margin-bottom="0"
     inkscape:window-width="1364"
     inkscape:window-height="730"
     inkscape:window-x="1440"
     inkscape:window-y="150"
     inkscape:window-maximized="0">
    <inkscape:grid
       type="xygrid"
       id="grid4487"
       originx="-45.346125"
       originy="-235.34006" />
  </sodipodi:namedview>
  <metadata
     id="metadata5">
    <rdf:RDF>
      <cc:Work
         rdf:about="">
        <dc:format>image/svg+xml</dc:format>
        <dc:type
           rdf:resource="http://purl.org/dc/dcmitype/StillImage" />
        <dc:title />
      </cc:Work>
    </rdf:RDF>
  </metadata>
  <g
     inkscape:label="Layer 1"
     inkscape:groupmode="layer"
     id="layer1"
     transform="translate(-45.346122,-24.340061)">
    <circle
       style="color:#000000;clip-rule:nonzero;display:inline;overflow:visible;visibility:visible;opacity:1;isolation:auto;mix-blend-mode:normal;color-interpolation:sRGB;color-interpolation-filters:linearRGB;solid-color:#000000;solid-opacity:1;fill:#ffffff;fill-opacity:0.98765432;fill-rule:nonzero;stroke:#000000;stroke-width:0.40000004;stroke-linecap:butt;stroke-linejoin:round;stroke-miterlimit:4;stroke-dasharray:none;stroke-dashoffset:0;stroke-opacity:1;color-rendering:auto;image-rendering:auto;shape-rendering:auto;text-rendering:auto;enable-background:accumulate"
       id="path4485"
       cx="66.145836"
       cy="32.416668"
       r="3.4017882" />
    <text
       xml:space="preserve"
       style="font-style:normal;font-variant:normal;font-weight:normal;font-stretch:normal;font-size:3.52777767px;line-height:6.61458302px;font-family:'Liberation Sans';-inkscape-font-specification:'Liberation Sans, Normal';text-align:start;letter-spacing:0px;word-spacing:0px;writing-mode:lr-tb;text-anchor:start;fill:#000000;fill-opacity:1;stroke:#000000;stroke-width:0.26458332px;stroke-linecap:butt;stroke-linejoin:miter;stroke-opacity:1"
       x="64.96933"
       y="33.630203"
       id="text4495"><tspan
         sodipodi:role="line"
         id="tspan4493"
         x="64.96933"
         y="33.630203"
         style="stroke:#000000;stroke-width:0.26458332px;stroke-opacity:1">A</tspan></text>
    <circle
       style="color:#000000;clip-rule:nonzero;display:inline;overflow:visible;visibility:visible;opacity:1;isolation:auto;mix-blend-mode:normal;color-interpolation:sRGB;color-interpolation-filters:linearRGB;solid-color:#000000;solid-opacity:1;fill:#ffffff;fill-opacity:0.98765432;fill-rule:nonzero;stroke:#000000;stroke-width:0.40000004;stroke-linecap:butt;stroke-linejoin:round;stroke-miterlimit:4;stroke-dasharray:none;stroke-dashoffset:0;stroke-opacity:1;color-rendering:auto;image-rendering:auto;shape-rendering:auto;text-rendering:auto;enable-background:accumulate"
       id="path4485-3"
       cx="87.3125"
       cy="32.416668"
       r="3.4017885" />
    <circle
       style="color:#000000;clip-rule:nonzero;display:inline;overflow:visible;visibility:visible;opacity:1;isolation:auto;mix-blend-mode:normal;color-interpolation:sRGB;color-interpolation-filters:linearRGB;solid-color:#000000;solid-opacity:1;fill:#ffffff;fill-opacity:0.98765432;fill-rule:nonzero;stroke:#000000;stroke-width:0.40000004;stroke-linecap:butt;stroke-linejoin:round;stroke-miterlimit:4;stroke-dasharray:none;stroke-dashoffset:0;stroke-opacity:1;color-rendering:auto;image-rendering:auto;shape-rendering:auto;text-rendering:auto;enable-background:accumulate"
       id="path4485-6"
       cx="66.145836"
       cy="53.584198"
       r="3.4017885" />
    <circle
       style="color:#000000;clip-rule:nonzero;display:inline;overflow:visible;visibility:visible;opacity:1;isolation:auto;mix-blend-mode:normal;color-interpolation:sRGB;color-interpolation-filters:linearRGB;solid-color:#000000;solid-opacity:1;fill:#ffffff;fill-opacity:0.98765432;fill-rule:nonzero;stroke:#000000;stroke-width:0.40000004;stroke-linecap:butt;stroke-linejoin:round;stroke-miterlimit:4;stroke-dasharray:none;stroke-dashoffset:0;stroke-opacity:1;color-rendering:auto;image-rendering:auto;shape-rendering:auto;text-rendering:auto;enable-background:accumulate"
       id="path4485-7"
       cx="87.3125"
       cy="53.584198"
       r="3.4017885" />
    <text
       xml:space="preserve"
       style="font-style:normal;font-variant:normal;font-weight:normal;font-stretch:normal;font-size:3.52777767px;line-height:6.61458349px;font-family:'Liberation Sans';-inkscape-font-specification:'Liberation Sans, Normal';text-align:start;letter-spacing:0px;word-spacing:0px;writing-mode:lr-tb;text-anchor:start;fill:#000000;fill-opacity:1;stroke:#000000;stroke-width:0.26458332px;stroke-linecap:butt;stroke-linejoin:miter;stroke-opacity:1"
       x="86.135994"
       y="33.630199"
       id="text4495-5"><tspan
         sodipodi:role="line"
         id="tspan4493-3"
         x="86.135994"
         y="33.630199"
         style="stroke:#000000;stroke-width:0.26458332px;stroke-opacity:1">T</tspan></text>
    <text
       xml:space="preserve"
       style="font-style:normal;font-variant:normal;font-weight:normal;font-stretch:normal;font-size:3.52777767px;line-height:6.61458349px;font-family:'Liberation Sans';-inkscape-font-specification:'Liberation Sans, Normal';text-align:start;letter-spacing:0px;word-spacing:0px;writing-mode:lr-tb;text-anchor:start;fill:#000000;fill-opacity:1;stroke:#000000;stroke-width:0.26458332px;stroke-linecap:butt;stroke-linejoin:miter;stroke-opacity:1"
       x="86.135994"
       y="54.797729"
       id="text4495-56"><tspan
         sodipodi:role="line"
         id="tspan4493-2"
         x="86.135994"
         y="54.797729"
         style="stroke:#000000;stroke-width:0.26458332px;stroke-opacity:1">G</tspan></text>
    <text
       xml:space="preserve"
       style="font-style:normal;font-variant:normal;font-weight:normal;font-stretch:normal;font-size:3.52777767px;line-height:6.61458349px;font-family:'Liberation Sans';-inkscape-font-specification:'Liberation Sans, Normal';text-align:start;letter-spacing:0px;word-spacing:0px;writing-mode:lr-tb;text-anchor:start;fill:#000000;fill-opacity:1;stroke:#000000;stroke-width:0.26458332px;stroke-linecap:butt;stroke-linejoin:miter;stroke-opacity:1"
       x="64.96933"
       y="54.797729"
       id="text4495-9"><tspan
         sodipodi:role="line"
         id="tspan4493-1"
         x="64.96933"
         y="54.797729"
         style="stroke:#000000;stroke-width:0.26458332px;stroke-opacity:1">C</tspan></text>
    <path
       style="fill:none;fill-rule:evenodd;stroke:#000000;stroke-width:0.26458332px;stroke-linecap:butt;stroke-linejoin:miter;stroke-opacity:1;marker-start:url(#Arrow2Mstart)"
       d="m 70.114582,31.093751 c 2.645833,-2.456845 10.48884,-2.645833 13.229167,0"
       id="path4562"
       inkscape:connector-curvature="0"
       sodipodi:nodetypes="cc" />
    <path
       style="fill:none;fill-rule:evenodd;stroke:#000000;stroke-width:0.26458332px;stroke-linecap:butt;stroke-linejoin:miter;stroke-opacity:1;marker-end:url(#marker5122)"
       d="m 70.114583,32.782503 c 2.645833,2.456845 10.48884,2.645833 13.229167,0"
       id="path4562-2"
       inkscape:connector-curvature="0"
       sodipodi:nodetypes="cc" />
    <path
       style="fill:none;fill-rule:evenodd;stroke:#000000;stroke-width:0.26458332px;stroke-linecap:butt;stroke-linejoin:miter;stroke-opacity:1;marker-start:url(#marker5556)"
       d="m 70.114582,52.261273 c 2.645833,-2.456845 10.48884,-2.645833 13.229167,0"
       id="path4562-7"
       inkscape:connector-curvature="0"
       sodipodi:nodetypes="cc" />
    <path
       style="fill:none;fill-rule:evenodd;stroke:#000000;stroke-width:0.26458332px;stroke-linecap:butt;stroke-linejoin:miter;stroke-opacity:1;marker-end:url(#marker5650)"
       d="m 70.114583,53.950025 c 2.645833,2.456845 10.48884,2.645833 13.229167,0"
       id="path4562-2-0"
       inkscape:connector-curvature="0"
       sodipodi:nodetypes="cc" />
    <path
       style="fill:none;fill-rule:evenodd;stroke:#000000;stroke-width:0.26458332px;stroke-linecap:butt;stroke-linejoin:miter;stroke-opacity:1;marker-start:url(#marker5468)"
       d="m 65.301457,49.614584 c -2.456845,-2.645833 -2.645833,-10.48884 0,-13.229167"
       id="path4562-9"
       inkscape:connector-curvature="0"
       sodipodi:nodetypes="cc" />
    <path
       style="fill:none;fill-rule:evenodd;stroke:#000000;stroke-width:0.26458332px;stroke-linecap:butt;stroke-linejoin:miter;stroke-opacity:1;marker-end:url(#marker5386)"
       d="m 66.99021,49.614583 c 2.456844,-2.645833 2.645832,-10.48884 0,-13.229167"
       id="path4562-2-3"
       inkscape:connector-curvature="0"
       sodipodi:nodetypes="cc" />
    <path
       style="fill:none;fill-rule:evenodd;stroke:#000000;stroke-width:0.26458332px;stroke-linecap:butt;stroke-linejoin:miter;stroke-opacity:1;marker-start:url(#marker5238)"
       d="m 86.468125,49.614584 c -2.456845,-2.645833 -2.645833,-10.48884 0,-13.229167"
       id="path4562-9-0"
       inkscape:connector-curvature="0"
       sodipodi:nodetypes="cc" />
    <path
       style="fill:none;fill-rule:evenodd;stroke:#000000;stroke-width:0.26458332px;stroke-linecap:butt;stroke-linejoin:miter;stroke-opacity:1;marker-end:url(#marker5308)"
       d="m 88.156878,49.614583 c 2.456844,-2.645833 2.645832,-10.48884 0,-13.229167"
       id="path4562-2-3-6"
       inkscape:connector-curvature="0"
       sodipodi:nodetypes="cc" />
    <path
       style="fill:none;fill-rule:evenodd;stroke:#000000;stroke-width:0.26499999;stroke-linecap:butt;stroke-linejoin:miter;stroke-miterlimit:4;stroke-dasharray:none;stroke-opacity:1;marker-end:url(#Arrow2Mend)"
       d="M 62.177083,31.09375 C 58.208334,29.770832 60.854167,27.125 63.5,29.770833"
       id="path4630"
       inkscape:connector-curvature="0"
       sodipodi:nodetypes="cc" />
    <path
       style="fill:none;fill-rule:evenodd;stroke:#000000;stroke-width:0.26458332px;stroke-linecap:butt;stroke-linejoin:miter;stroke-opacity:1;marker-end:url(#marker4984)"
       d="M 91.28125,31.09375 C 95.249999,29.770832 92.604166,27.125 89.958333,29.770833"
       id="path4630-2"
       inkscape:connector-curvature="0"
       sodipodi:nodetypes="cc" />
    <path
       style="fill:none;fill-rule:evenodd;stroke:#000000;stroke-width:0.26458332px;stroke-linecap:butt;stroke-linejoin:miter;stroke-opacity:1;marker-end:url(#marker5024)"
       d="m 90.930795,55.001662 c 3.968749,1.322918 1.322916,3.96875 -1.322917,1.322917"
       id="path4630-2-6"
       inkscape:connector-curvature="0"
       sodipodi:nodetypes="cc" />
    <path
       style="fill:none;fill-rule:evenodd;stroke:#000000;stroke-width:0.26458332px;stroke-linecap:butt;stroke-linejoin:miter;stroke-opacity:1;marker-end:url(#marker5070)"
       d="M 62.177083,54.90625 C 58.208334,56.229168 60.854167,58.875 63.5,56.229167"
       id="path4630-2-1"
       inkscape:connector-curvature="0"
       sodipodi:nodetypes="cc" />
    <g
       aria-label="E"
       style="font-style:normal;font-variant:normal;font-weight:normal;font-stretch:normal;font-size:3.52777767px;line-height:6.61458302px;font-family:rsfs10;-inkscape-font-specification:rsfs10;text-align:start;letter-spacing:0px;word-spacing:0px;writing-mode:lr-tb;text-anchor:start;fill:#000000;fill-opacity:1;stroke:none;stroke-width:0.26458332px;stroke-linecap:butt;stroke-linejoin:miter;stroke-opacity:1"
       id="text5886">
      <path
         d="m 105.38547,42.124979 q -0.007,0.01033 -0.0241,0.01033 -0.062,0 -0.1378,0.05512 -0.0689,0.04134 -0.13436,0.134358 -0.0861,0.124024 -0.0861,0.199816 0,0.113688 0.16192,0.113688 0.0758,0 0.15848,-0.06546 0.0965,-0.06546 0.15847,-0.161919 0.0999,-0.134359 0.0965,-0.251492 0,-0.0689 -0.031,-0.117133 -0.0896,-0.144694 -0.40652,-0.144694 -0.15159,0 -0.3204,0.117133 -0.14125,0.103353 -0.28594,0.310058 -0.19637,0.282498 -0.19637,0.440973 0,0.02412 0.003,0.0379 0.007,0.02756 0.0138,0.04479 0.1068,-0.01723 0.17915,-0.01723 0.13091,0 0.2136,0.0379 0.062,0.03101 0.062,0.07235 0,0.02756 -0.0172,0.04823 -0.0241,0.0379 -0.0758,0.05512 -0.0517,0.01723 -0.10335,0.01723 -0.22393,0 -0.35485,-0.09991 -0.0965,0.0379 -0.16536,0.07924 -0.19637,0.120579 -0.33073,0.320394 -0.21704,0.313504 -0.22049,0.523655 0,0.05512 0.0172,0.09991 0.0827,0.248047 0.47542,0.248047 0.18604,0 0.38241,-0.117133 0.18259,-0.110243 0.3135,-0.296278 0.0965,-0.127469 0.093,-0.237712 0,-0.04134 -0.0172,-0.07579 -0.0654,-0.124023 -0.32384,-0.124023 -0.1378,0 -0.2756,0.165364 -0.13781,0.165365 -0.16537,0.354845 0,0.01723 -0.0172,0.02756 l -0.0241,0.01034 h -0.0172 q -0.0138,0 -0.0207,-0.01723 -0.003,-0.0034 -0.003,-0.01723 0.0276,-0.213596 0.19637,-0.406521 0.16881,-0.196371 0.34106,-0.196371 0.32729,0 0.45131,0.158475 0.0517,0.06201 0.0517,0.161919 0,0.113689 -0.0827,0.230822 -0.14125,0.192925 -0.39619,0.320394 -0.26527,0.134358 -0.49954,0.134358 -0.4892,0 -0.64079,-0.289388 -0.0448,-0.09302 -0.0448,-0.206705 0,-0.237712 0.17914,-0.489204 0.14814,-0.203261 0.44442,-0.347955 0.13436,-0.06201 0.23427,-0.08613 -0.0172,-0.02412 -0.031,-0.05857 -0.0241,-0.05857 -0.0241,-0.137803 0,-0.189481 0.15159,-0.406522 0.15847,-0.213596 0.40652,-0.354844 0.26527,-0.14814 0.48576,-0.14814 0.34795,0 0.46164,0.192926 0.0413,0.06546 0.0413,0.155029 0,0.144694 -0.11713,0.316949 -0.0896,0.120578 -0.19637,0.186035 -0.12058,0.08268 -0.22393,0.07924 -0.18259,0 -0.22393,-0.130913 -0.0103,-0.03101 -0.0103,-0.06201 0,-0.103353 0.0896,-0.234267 0.062,-0.09302 0.1757,-0.161919 0.11714,-0.06546 0.19637,-0.06546 0.031,0 0.031,0.02756 0,0.01033 -0.007,0.01723 z m -0.86472,0.788927 q -0.0551,0 -0.11024,0.01034 0.0689,0.05857 0.21359,0.05857 0.0379,0 0.0551,-0.0069 l 0.0276,-0.02067 q 0.003,-0.0034 0.003,-0.0069 0,-0.0069 -0.0207,-0.01378 -0.0482,-0.02067 -0.16881,-0.02067 z"
         style="stroke-width:0.26458332px"
         id="path11580" />
    </g>
    <circle
       style="color:#000000;clip-rule:nonzero;display:inline;overflow:visible;visibility:visible;opacity:1;isolation:auto;mix-blend-mode:normal;color-interpolation:sRGB;color-interpolation-filters:linearRGB;solid-color:#000000;solid-opacity:1;fill:none;fill-opacity:0.98765432;fill-rule:nonzero;stroke:#000000;stroke-width:0.40000004;stroke-linecap:butt;stroke-linejoin:round;stroke-miterlimit:4;stroke-dasharray:none;stroke-dashoffset:0;stroke-opacity:1;color-rendering:auto;image-rendering:auto;shape-rendering:auto;text-rendering:auto;enable-background:accumulate"
       id="path4485-1-2"
       cx="104.51041"
       cy="43.046539"
       r="3.4017887" />
    <path
       style="fill:none;fill-rule:evenodd;stroke:#000000;stroke-width:0.26458332px;stroke-linecap:butt;stroke-linejoin:miter;stroke-opacity:1;marker-end:url(#marker6207)"
       d="M 67.468748,28.447903 C 74.08333,23.156236 96.96005,20.255552 104.51041,39.031236"
       id="path5928"
       inkscape:connector-curvature="0"
       sodipodi:nodetypes="cc" />
    <path
       style="fill:none;fill-rule:evenodd;stroke:#000000;stroke-width:0.26458332px;stroke-linecap:butt;stroke-linejoin:miter;stroke-opacity:1;marker-end:url(#marker6325)"
       d="m 67.468748,57.55207 c 6.614583,5.291668 29.491303,8.19235 37.041662,-10.583334"
       id="path5928-0"
       inkscape:connector-curvature="0"
       sodipodi:nodetypes="cc" />
    <path
       style="fill:none;fill-rule:evenodd;stroke:#000000;stroke-width:0.26458332px;stroke-linecap:butt;stroke-linejoin:miter;stroke-opacity:1;marker-end:url(#marker6095)"
       d="m 91.281249,33.73957 10.583331,6.614583"
       id="path5977"
       inkscape:connector-curvature="0" />
    <path
       style="fill:none;fill-rule:evenodd;stroke:#000000;stroke-width:0.26458332px;stroke-linecap:butt;stroke-linejoin:miter;stroke-opacity:1;marker-end:url(#marker5989)"
       d="M 91.281249,53.583319 101.86458,45.64582"
       id="path5979"
       inkscape:connector-curvature="0" />
    <g
       aria-label="B"
       style="font-style:normal;font-variant:normal;font-weight:normal;font-stretch:normal;font-size:3.52777767px;line-height:6.61458302px;font-family:rsfs10;-inkscape-font-specification:rsfs10;text-align:start;letter-spacing:0px;word-spacing:0px;writing-mode:lr-tb;text-anchor:start;fill:#000000;fill-opacity:1;stroke:none;stroke-width:0.26458332px;stroke-linecap:butt;stroke-linejoin:miter;stroke-opacity:1"
       id="text5886-1">
      <path
         d="m 49.514633,41.727022 q 0.471978,0 0.73036,0.148139 l 0.186035,-0.117133 q 0.0034,-0.0034 0.01378,-0.0034 0.02412,0 0.03101,0.02067 l 0.0069,0.0379 q 0,0.01034 -0.01378,0.02412 -0.07579,0.04823 -0.130914,0.09646 0.02067,0.01722 0.05512,0.05512 0.130914,0.130914 0.130914,0.303169 0,0.161919 -0.127468,0.344509 -0.137804,0.192926 -0.361735,0.347955 0.113688,0.06546 0.158474,0.16881 0.0379,0.07924 0.0379,0.168809 0,0.192926 -0.16192,0.427192 -0.155029,0.213596 -0.38585,0.354845 -0.244602,0.148139 -0.444418,0.148139 -0.223931,0 -0.272162,-0.165365 -0.0069,-0.02067 -0.0069,-0.06546 0,-0.141249 0.113688,-0.306614 0.07924,-0.113688 0.254937,-0.192925 0.16881,-0.07924 0.341064,-0.07579 0.02756,0 0.03101,0.02756 0,0.01378 -0.0034,0.01723 l -0.01378,0.02067 q -0.01034,0.01034 -0.02756,0.01034 -0.148139,0 -0.299723,0.06546 -0.151584,0.0689 -0.213596,0.161919 -0.106798,0.148139 -0.106798,0.261827 0,0.02067 0.0069,0.04823 0.02756,0.117133 0.210151,0.117133 0.144694,0 0.323839,-0.130914 0.148139,-0.110243 0.310058,-0.330729 0.179145,-0.251492 0.179145,-0.440972 0,-0.03445 -0.01378,-0.08613 -0.03101,-0.09646 -0.117133,-0.141248 -0.241157,0.130913 -0.427192,0.130913 -0.103353,0 -0.16192,-0.02067 l -0.244601,0.344509 q -0.223932,0.313504 -0.585667,0.544325 -0.361735,0.227377 -0.661458,0.227377 -0.206706,0 -0.344509,-0.0689 -0.137804,-0.0689 -0.137804,-0.196371 0,-0.09991 0.08268,-0.220486 0.0689,-0.103353 0.203261,-0.103353 0.117133,0 0.117133,0.120579 0,0.04823 -0.06546,0.09302 -0.06201,0.04479 -0.134359,0.04479 -0.0689,0 -0.09991,-0.05168 -0.02756,0.06201 -0.03101,0.09991 0,0.103353 0.117133,0.155029 0.117133,0.05168 0.306614,0.05168 0.206705,0 0.458197,-0.213595 0.254937,-0.213596 0.471978,-0.516765 0.258382,-0.361735 0.399631,-0.55466 0.144694,-0.192925 0.413412,-0.482314 0.272162,-0.289388 0.54088,-0.489203 -0.223931,-0.137804 -0.651123,-0.134359 -0.375516,0 -0.778592,0.203261 -0.403076,0.199815 -0.613227,0.502984 -0.18948,0.268717 -0.18948,0.454752 0,0.02756 0.0034,0.04479 0.02412,0.186035 0.258382,0.186035 0.141249,0 0.303169,-0.09991 0.137803,-0.08957 0.251492,-0.248047 0.09646,-0.137804 0.144694,-0.217041 0.05168,-0.07924 0.09991,-0.179145 0.04823,-0.103353 0.04823,-0.172255 v -0.02756 q 0,-0.01723 0.01723,-0.02756 0.01033,-0.0069 0.03101,-0.01378 0.03101,0 0.03445,0.03101 0.0069,0.06201 0.0069,0.09302 0,0.272162 -0.199815,0.54777 -0.117134,0.16192 -0.334175,0.279053 -0.217041,0.113688 -0.416856,0.113688 -0.141249,0 -0.230822,-0.06201 -0.08613,-0.06546 -0.103352,-0.18259 -0.0069,-0.04134 -0.0069,-0.0689 0,-0.210151 0.192926,-0.485758 0.223931,-0.310059 0.661458,-0.53399 0.430637,-0.217041 0.833713,-0.217041 z m 0.148139,1.174778 q 0.137804,0 0.244602,0.03101 0.158474,-0.124023 0.303168,-0.330729 0.130914,-0.186035 0.130914,-0.344509 0,-0.141249 -0.09646,-0.237712 -0.272162,0.279053 -0.72347,0.89228 0.07579,-0.01033 0.141249,-0.01033 z m -0.151584,0.155029 q -0.0069,0.01033 -0.01722,0.02412 -0.0069,0.01033 -0.01034,0.01378 0.0069,0.0034 0.0379,0.0034 0.127469,0 0.292833,-0.09991 -0.08268,-0.01722 -0.165364,-0.01722 -0.05512,0 -0.09302,0.02067 -0.01722,0.01378 -0.04479,0.05512 z"
         style="stroke-width:0.26458332px"
         id="path11410" />
    </g>
    <circle
       style="color:#000000;clip-rule:nonzero;display:inline;overflow:visible;visibility:visible;opacity:1;isolation:auto;mix-blend-mode:normal;color-interpolation:sRGB;color-interpolation-filters:linearRGB;solid-color:#000000;solid-opacity:1;fill:none;fill-opacity:0.98765432;fill-rule:nonzero;stroke:#000000;stroke-width:0.40000004;stroke-linecap:butt;stroke-linejoin:round;stroke-miterlimit:4;stroke-dasharray:none;stroke-dashoffset:0;stroke-opacity:1;color-rendering:auto;image-rendering:auto;shape-rendering:auto;text-rendering:auto;enable-background:accumulate"
       id="path4485-1-2-8"
       cx="-48.94791"
       cy="43.046539"
       r="3.4017887"
       transform="scale(-1,1)" />
    <path
       style="fill:none;fill-rule:evenodd;stroke:#000000;stroke-width:0.26458332px;stroke-linecap:butt;stroke-linejoin:miter;stroke-opacity:1;marker-start:url(#marker6821)"
       d="M 85.989582,28.447903 C 79.375,23.156236 56.49828,20.255552 48.94792,39.031236"
       id="path5928-9"
       inkscape:connector-curvature="0"
       sodipodi:nodetypes="cc" />
    <path
       style="fill:none;fill-rule:evenodd;stroke:#000000;stroke-width:0.26458332px;stroke-linecap:butt;stroke-linejoin:miter;stroke-opacity:1;marker-start:url(#marker7337)"
       d="M 85.989582,57.55207 C 79.374999,62.843738 56.498279,65.74442 48.94792,46.968736"
       id="path5928-0-6"
       inkscape:connector-curvature="0"
       sodipodi:nodetypes="cc" />
    <path
       style="fill:none;fill-rule:evenodd;stroke:#000000;stroke-width:0.26458332px;stroke-linecap:butt;stroke-linejoin:miter;stroke-opacity:1;marker-start:url(#marker6975)"
       d="M 62.177081,33.73957 51.59375,40.354153"
       id="path5977-0"
       inkscape:connector-curvature="0" />
    <path
       style="fill:none;fill-rule:evenodd;stroke:#000000;stroke-width:0.26458332px;stroke-linecap:butt;stroke-linejoin:miter;stroke-opacity:1;marker-start:url(#marker7153)"
       d="M 62.177081,53.583319 51.59375,45.64582"
       id="path5979-6"
       inkscape:connector-curvature="0" />
  </g>
</svg>
