<?xml version="1.0" encoding="UTF-8" standalone="no"?>
<svg
   xmlns:dc="http://purl.org/dc/elements/1.1/"
   xmlns:cc="http://creativecommons.org/ns#"
   xmlns:rdf="http://www.w3.org/1999/02/22-rdf-syntax-ns#"
   xmlns:svg="http://www.w3.org/2000/svg"
   xmlns="http://www.w3.org/2000/svg"
   viewBox="0 0 643.89337 287.53738"
   height="287.53738"
   width="643.89337"
   xml:space="preserve"
   id="svg2"
   version="1.1"><metadata
     id="metadata8"><rdf:RDF><cc:Work
         rdf:about=""><dc:format>image/svg+xml</dc:format><dc:type
           rdf:resource="http://purl.org/dc/dcmitype/StillImage" /></cc:Work></rdf:RDF></metadata><defs
     id="defs6" /><g
     transform="matrix(1.3333333,0,0,-1.3333333,0,287.53737)"
     id="g10"><g
       id="g12"><g
         transform="matrix(1,0,0,-1,0,215.65303)"
         id="g14"><path
           id="path16"
           style="fill:none;stroke:#ff0000;stroke-width:1.60000002;stroke-linecap:butt;stroke-linejoin:miter;stroke-miterlimit:4;stroke-dasharray:none;stroke-opacity:1"
           d="m 8,58.922 h 80 v -16 h 80 v -16 h 56 v 16 h 56 v -16 h 32 v -16 h 32 v 16 h 24 v -16 h 16 v 16 h 32 v 16 h 56 v 16" /></g><g
         transform="matrix(1,0,0,-1,0,215.65303)"
         id="g18"><path
           id="path20"
           style="fill:none;stroke:#0000ff;stroke-width:1.60000002;stroke-linecap:butt;stroke-linejoin:miter;stroke-miterlimit:4;stroke-dasharray:none;stroke-opacity:1"
           d="m 8,122.922 h 80 v -24 h 136" /></g><g
         transform="matrix(1,0,0,-1,0,215.65303)"
         id="g22"><path
           id="path24"
           style="fill:none;stroke:#0000ff;stroke-width:1.60000002;stroke-linecap:butt;stroke-linejoin:miter;stroke-miterlimit:4;stroke-dasharray:none;stroke-opacity:1"
           d="m 88,122.922 v 24 h 192 v -24 h 104" /></g><g
         transform="matrix(1,0,0,-1,0,215.65303)"
         id="g26"><path
           id="path28"
           style="fill:none;stroke:#0000ff;stroke-width:1.60000002;stroke-linecap:butt;stroke-linejoin:miter;stroke-miterlimit:4;stroke-dasharray:none;stroke-opacity:1"
           d="m 280,146.922 v 24 h 32 v -24 h 160" /></g><g
         transform="matrix(1,0,0,-1,0,215.65303)"
         id="g30"><path
           id="path32"
           style="fill:none;stroke:#0000ff;stroke-width:1.60000002;stroke-linecap:butt;stroke-linejoin:miter;stroke-miterlimit:4;stroke-dasharray:none;stroke-opacity:1"
           d="m 312,170.922 v 24 h 104" /></g><path
         id="path34"
         style="fill:#000000;fill-opacity:1;fill-rule:nonzero;stroke:none"
         d="M 24.848,11.442 V 7.88 h 1.609 c 0.594,0 1.051,0.156 1.375,0.468 0.332,0.313 0.5,0.75 0.5,1.313 0,0.57 -0.168,1.008 -0.5,1.312 -0.324,0.313 -0.781,0.469 -1.375,0.469 z m -1.282,1.063 h 2.891 c 1.063,0 1.863,-0.247 2.406,-0.735 0.539,-0.48 0.813,-1.183 0.813,-2.109 0,-0.93 -0.274,-1.633 -0.813,-2.11 C 28.32,7.071 27.52,6.833 26.457,6.833 H 24.848 V 3.02 H 23.566 Z M 34.043,12.88 C 33.48,11.911 33.059,10.946 32.777,9.989 32.504,9.04 32.371,8.075 32.371,7.098 c 0,-0.98 0.133,-1.949 0.406,-2.906 0.282,-0.961 0.703,-1.922 1.266,-2.891 h -1.016 c -0.636,1 -1.109,1.977 -1.422,2.938 -0.312,0.957 -0.468,1.91 -0.468,2.859 0,0.946 0.156,1.895 0.468,2.844 0.313,0.957 0.786,1.938 1.422,2.938 z m 8.703,-8.5 v 2.531 h -2.094 v 1.062 h 3.36 V 3.895 C 43.52,3.551 42.973,3.286 42.371,3.098 41.777,2.923 41.141,2.833 40.465,2.833 c -1.481,0 -2.637,0.429 -3.469,1.297 -0.836,0.863 -1.25,2.07 -1.25,3.625 0,1.539 0.414,2.742 1.25,3.609 0.832,0.875 1.988,1.312 3.469,1.312 0.625,0 1.211,-0.078 1.765,-0.234 0.563,-0.156 1.079,-0.383 1.547,-0.672 v -1.375 c -0.48,0.406 -0.984,0.707 -1.515,0.906 -0.532,0.207 -1.094,0.313 -1.688,0.313 -1.156,0 -2.027,-0.324 -2.609,-0.969 -0.586,-0.648 -0.875,-1.609 -0.875,-2.89 0,-1.282 0.289,-2.247 0.875,-2.891 0.582,-0.648 1.453,-0.969 2.609,-0.969 0.457,0 0.864,0.035 1.219,0.11 0.352,0.082 0.672,0.207 0.953,0.375 z m 4.926,8.578 v -13 h -1.078 v 13 z m 1.558,-0.453 h 8.016 V 11.411 H 53.871 V 3.02 H 52.59 v 8.391 h -3.36 z m 8.903,0.375 h 1.015 c 0.633,-1 1.11,-1.981 1.422,-2.938 0.313,-0.949 0.469,-1.898 0.469,-2.844 0,-0.949 -0.156,-1.902 -0.469,-2.859 C 60.258,3.278 59.781,2.301 59.148,1.301 h -1.015 c 0.562,0.969 0.976,1.93 1.25,2.891 0.281,0.957 0.422,1.926 0.422,2.906 0,0.977 -0.141,1.942 -0.422,2.891 -0.274,0.957 -0.688,1.922 -1.25,2.891 z m 5.328,-3.954 h 8.141 V 7.864 h -8.141 z m 0,-2.593 h 8.141 V 5.255 h -8.141 z" /><g
         transform="matrix(1,0,0,-1,0,215.65303)"
         id="g36"><path
           id="path38"
           style="fill:none;stroke:#000000;stroke-width:1.60000002;stroke-linecap:butt;stroke-linejoin:miter;stroke-miterlimit:4;stroke-dasharray:none;stroke-opacity:1"
           d="m 8,2.922 v 72 h 472" /></g><g
         transform="matrix(0,-1,-1,0,0,215.65303)"
         id="g40"><path
           id="path42"
           style="fill:#000000;fill-opacity:1;fill-rule:evenodd;stroke:#000000;stroke-width:1.60000002;stroke-linecap:butt;stroke-linejoin:miter;stroke-miterlimit:4;stroke-dasharray:none;stroke-opacity:1"
           d="M 18.922,-8 25.32,-14.398 2.922,-8 25.32,-1.602 Z" /></g><g
         transform="matrix(-1,0,0,1,0,215.65303)"
         id="g44"><path
           id="path46"
           style="fill:#000000;fill-opacity:1;fill-rule:evenodd;stroke:#000000;stroke-width:1.60000002;stroke-linecap:butt;stroke-linejoin:miter;stroke-miterlimit:4;stroke-dasharray:none;stroke-opacity:1"
           d="m -464,-74.922 6.398,-6.398 -22.398,6.398 22.398,6.402 z" /></g><path
         id="path48"
         style="fill:#000000;fill-opacity:1;fill-rule:nonzero;stroke:none"
         d="m 16.137,214.79 h 1.718 l 4.204,-7.938 v 7.938 h 1.25 v -9.485 h -1.735 l -4.203,7.922 v -7.922 h -1.234 z m 12.328,0.375 c -0.563,-0.969 -0.985,-1.934 -1.266,-2.891 -0.273,-0.949 -0.406,-1.914 -0.406,-2.891 0,-0.98 0.133,-1.949 0.406,-2.906 0.281,-0.961 0.703,-1.922 1.266,-2.89 h -1.016 c -0.637,1 -1.109,1.976 -1.422,2.937 -0.312,0.957 -0.468,1.91 -0.468,2.859 0,0.946 0.156,1.895 0.468,2.844 0.313,0.957 0.785,1.938 1.422,2.938 z m 3.344,-0.735 v -2.015 h 2.406 v -0.907 h -2.406 v -3.859 c 0,-0.586 0.078,-0.961 0.234,-1.125 0.164,-0.156 0.492,-0.234 0.984,-0.234 h 1.188 v -0.985 h -1.188 c -0.906,0 -1.531,0.164 -1.875,0.5 -0.343,0.344 -0.515,0.957 -0.515,1.844 v 3.859 h -0.86 v 0.907 h 0.86 v 2.015 z m 3.695,0.735 h 1.016 c 0.632,-1 1.109,-1.981 1.421,-2.938 0.313,-0.949 0.469,-1.898 0.469,-2.844 0,-0.949 -0.156,-1.902 -0.469,-2.859 -0.312,-0.961 -0.789,-1.937 -1.421,-2.937 h -1.016 c 0.562,0.968 0.976,1.929 1.25,2.89 0.281,0.957 0.422,1.926 0.422,2.906 0,0.977 -0.141,1.942 -0.422,2.891 -0.274,0.957 -0.688,1.922 -1.25,2.891 z" /><path
         id="path50"
         style="fill:#000000;fill-opacity:1;fill-rule:nonzero;stroke:none"
         d="M 460.09,160.716 V 158.7 h 2.406 v -0.906 h -2.406 v -3.86 c 0,-0.586 0.078,-0.961 0.234,-1.125 0.164,-0.156 0.492,-0.234 0.985,-0.234 h 1.187 v -0.984 h -1.187 c -0.907,0 -1.532,0.164 -1.875,0.5 -0.344,0.343 -0.516,0.957 -0.516,1.843 v 3.86 h -0.859 v 0.906 h 0.859 v 2.016 z" /></g></g></svg>