<?xml version="1.0" encoding="UTF-8" standalone="no"?>
<svg
   xmlns:dc="http://purl.org/dc/elements/1.1/"
   xmlns:cc="http://creativecommons.org/ns#"
   xmlns:rdf="http://www.w3.org/1999/02/22-rdf-syntax-ns#"
   xmlns:svg="http://www.w3.org/2000/svg"
   xmlns="http://www.w3.org/2000/svg"
   viewBox="0 0 643.89337 287.53738"
   height="287.53738"
   width="643.89337"
   xml:space="preserve"
   id="svg2"
   version="1.1"><metadata
     id="metadata8"><rdf:RDF><cc:Work
         rdf:about=""><dc:format>image/svg+xml</dc:format><dc:type
           rdf:resource="http://purl.org/dc/dcmitype/StillImage" /></cc:Work></rdf:RDF></metadata><defs
     id="defs6" /><g
     transform="matrix(1.3333333,0,0,-1.3333333,0,287.53737)"
     id="g10"><g
       id="g12"><g
         transform="matrix(1,0,0,-1,0,215.65303)"
         id="g14"><path
           id="path16"
           style="fill:none;stroke:#ff0000;stroke-width:1.60000002;stroke-linecap:butt;stroke-linejoin:miter;stroke-miterlimit:4;stroke-dasharray:none;stroke-opacity:1"
           d="m 8,58.922 h 80 v -16 h 80 v -16 h 56 v 16 h 56 v -16 h 32 v -16 h 32 v 16 h 24 v -16 h 16 v 16 h 32 v 16 h 56 v 16" /></g><g
         transform="matrix(1,0,0,-1,0,215.65303)"
         id="g18"><path
           id="path20"
           style="fill:none;stroke:#0000ff;stroke-width:1.60000002;stroke-linecap:butt;stroke-linejoin:miter;stroke-miterlimit:4;stroke-dasharray:none;stroke-opacity:1"
           d="m 8,122.922 h 80 v -24 h 136" /></g><g
         transform="matrix(1,0,0,-1,0,215.65303)"
         id="g22"><path
           id="path24"
           style="fill:none;stroke:#0000ff;stroke-width:1.60000002;stroke-linecap:butt;stroke-linejoin:miter;stroke-miterlimit:4;stroke-dasharray:none;stroke-opacity:1"
           d="m 88,122.922 v 24 h 192 v -24 h 104" /></g><g
         transform="matrix(1,0,0,-1,0,215.65303)"
         id="g26"><path
           id="path28"
           style="fill:none;stroke:#0000ff;stroke-width:1.60000002;stroke-linecap:butt;stroke-linejoin:miter;stroke-miterlimit:4;stroke-dasharray:none;stroke-opacity:1"
           d="m 280,146.922 v 24 h 32 v -24 h 160" /></g><g
         transform="matrix(1,0,0,-1,0,215.65303)"
         id="g30"><path
           id="path32"
           style="fill:none;stroke:#0000ff;stroke-width:1.60000002;stroke-linecap:butt;stroke-linejoin:miter;stroke-miterlimit:4;stroke-dasharray:none;stroke-opacity:1"
           d="m 312,170.922 v 24 h 104" /></g><g
         transform="matrix(1,0,0,-1,0,215.65303)"
         id="g34"><path
           id="path36"
           style="fill:none;stroke:#008b00;stroke-width:1.60000002;stroke-linecap:butt;stroke-linejoin:miter;stroke-miterlimit:4;stroke-dasharray:9.6, 1.6;stroke-dashoffset:0;stroke-opacity:1"
           d="m 88,58.922 v 144" /></g><g
         transform="matrix(1,0,0,-1,0,215.65303)"
         id="g38"><path
           id="path40"
           style="fill:none;stroke:#ffa200;stroke-width:1.60000002;stroke-linecap:butt;stroke-linejoin:miter;stroke-miterlimit:4;stroke-dasharray:9.6, 1.6;stroke-dashoffset:0;stroke-opacity:1"
           d="m 168,42.922 v 160" /></g><g
         transform="matrix(1,0,0,-1,0,215.65303)"
         id="g42"><path
           id="path44"
           style="fill:none;stroke:#008b00;stroke-width:1.60000002;stroke-linecap:butt;stroke-linejoin:miter;stroke-miterlimit:4;stroke-dasharray:9.6, 1.6;stroke-dashoffset:0;stroke-opacity:1"
           d="m 224,42.922 v 160" /></g><g
         transform="matrix(1,0,0,-1,0,215.65303)"
         id="g46"><path
           id="path48"
           style="fill:none;stroke:#008b00;stroke-width:1.60000002;stroke-linecap:butt;stroke-linejoin:miter;stroke-miterlimit:4;stroke-dasharray:9.6, 1.6;stroke-dashoffset:0;stroke-opacity:1"
           d="m 280,42.922 v 160" /></g><g
         transform="matrix(1,0,0,-1,0,215.65303)"
         id="g50"><path
           id="path52"
           style="fill:none;stroke:#008b00;stroke-width:1.60000002;stroke-linecap:butt;stroke-linejoin:miter;stroke-miterlimit:4;stroke-dasharray:9.6, 1.6;stroke-dashoffset:0;stroke-opacity:1"
           d="m 312,26.922 v 176" /></g><g
         transform="matrix(1,0,0,-1,0,215.65303)"
         id="g54"><path
           id="path56"
           style="fill:none;stroke:#ffa200;stroke-width:1.60000002;stroke-linecap:butt;stroke-linejoin:miter;stroke-miterlimit:4;stroke-dasharray:9.6, 1.6;stroke-dashoffset:0;stroke-opacity:1"
           d="m 344,26.922 v 176" /></g><g
         transform="matrix(1,0,0,-1,0,215.65303)"
         id="g58"><path
           id="path60"
           style="fill:none;stroke:#ffa200;stroke-width:1.60000002;stroke-linecap:butt;stroke-linejoin:miter;stroke-miterlimit:4;stroke-dasharray:9.6, 1.6;stroke-dashoffset:0;stroke-opacity:1"
           d="m 368,26.922 v 176" /></g><path
         id="path62"
         style="fill:#000000;fill-opacity:1;fill-rule:nonzero;stroke:none"
         d="M 24.848,11.442 V 7.88 h 1.609 c 0.594,0 1.051,0.156 1.375,0.468 0.332,0.313 0.5,0.75 0.5,1.313 0,0.57 -0.168,1.008 -0.5,1.312 -0.324,0.313 -0.781,0.469 -1.375,0.469 z m -1.282,1.063 h 2.891 c 1.063,0 1.863,-0.247 2.406,-0.735 0.539,-0.48 0.813,-1.183 0.813,-2.109 0,-0.93 -0.274,-1.633 -0.813,-2.11 C 28.32,7.071 27.52,6.833 26.457,6.833 H 24.848 V 3.02 H 23.566 Z M 34.043,12.88 C 33.48,11.911 33.059,10.946 32.777,9.989 32.504,9.04 32.371,8.075 32.371,7.098 c 0,-0.98 0.133,-1.949 0.406,-2.906 0.282,-0.961 0.703,-1.922 1.266,-2.891 h -1.016 c -0.636,1 -1.109,1.977 -1.422,2.938 -0.312,0.957 -0.468,1.91 -0.468,2.859 0,0.946 0.156,1.895 0.468,2.844 0.313,0.957 0.786,1.938 1.422,2.938 z m 8.703,-8.5 v 2.531 h -2.094 v 1.062 h 3.36 V 3.895 C 43.52,3.551 42.973,3.286 42.371,3.098 41.777,2.923 41.141,2.833 40.465,2.833 c -1.481,0 -2.637,0.429 -3.469,1.297 -0.836,0.863 -1.25,2.07 -1.25,3.625 0,1.539 0.414,2.742 1.25,3.609 0.832,0.875 1.988,1.312 3.469,1.312 0.625,0 1.211,-0.078 1.765,-0.234 0.563,-0.156 1.079,-0.383 1.547,-0.672 v -1.375 c -0.48,0.406 -0.984,0.707 -1.515,0.906 -0.532,0.207 -1.094,0.313 -1.688,0.313 -1.156,0 -2.027,-0.324 -2.609,-0.969 -0.586,-0.648 -0.875,-1.609 -0.875,-2.89 0,-1.282 0.289,-2.247 0.875,-2.891 0.582,-0.648 1.453,-0.969 2.609,-0.969 0.457,0 0.864,0.035 1.219,0.11 0.352,0.082 0.672,0.207 0.953,0.375 z m 4.926,8.578 v -13 h -1.078 v 13 z m 1.558,-0.453 h 8.016 V 11.411 H 53.871 V 3.02 H 52.59 v 8.391 h -3.36 z m 8.903,0.375 h 1.015 c 0.633,-1 1.11,-1.981 1.422,-2.938 0.313,-0.949 0.469,-1.898 0.469,-2.844 0,-0.949 -0.156,-1.902 -0.469,-2.859 C 60.258,3.278 59.781,2.301 59.148,1.301 h -1.015 c 0.562,0.969 0.976,1.93 1.25,2.891 0.281,0.957 0.422,1.926 0.422,2.906 0,0.977 -0.141,1.942 -0.422,2.891 -0.274,0.957 -0.688,1.922 -1.25,2.891 z m 5.328,-3.954 h 8.141 V 7.864 h -8.141 z m 0,-2.593 h 8.141 V 5.255 h -8.141 z" /><path
         id="path64"
         style="fill:#000000;fill-opacity:1;fill-rule:nonzero;stroke:none"
         d="M 85.055,4.895 V 2.286 h -0.813 v 6.797 h 0.813 v -0.75 c 0.175,0.289 0.39,0.508 0.64,0.656 0.258,0.144 0.571,0.219 0.938,0.219 0.594,0 1.078,-0.242 1.453,-0.719 0.375,-0.481 0.562,-1.106 0.562,-1.875 0,-0.773 -0.187,-1.398 -0.562,-1.875 -0.375,-0.469 -0.859,-0.703 -1.453,-0.703 -0.367,0 -0.68,0.07 -0.938,0.203 -0.25,0.144 -0.465,0.363 -0.64,0.656 z m 2.75,1.719 c 0,0.594 -0.125,1.055 -0.375,1.391 -0.242,0.343 -0.575,0.515 -1,0.515 C 86,8.52 85.664,8.348 85.414,8.005 85.172,7.669 85.055,7.208 85.055,6.614 c 0,-0.594 0.117,-1.063 0.359,-1.406 0.25,-0.336 0.586,-0.5 1.016,-0.5 0.425,0 0.758,0.164 1,0.5 0.25,0.343 0.375,0.812 0.375,1.406 z" /><path
         id="path66"
         style="fill:#000000;fill-opacity:1;fill-rule:nonzero;stroke:none"
         d="m 93.406,7.137 v -0.75 c -0.23,0.125 -0.461,0.219 -0.687,0.282 -0.231,0.062 -0.465,0.093 -0.703,0.093 -0.524,0 -0.93,-0.168 -1.219,-0.5 -0.293,-0.336 -0.438,-0.804 -0.438,-1.406 0,-0.594 0.145,-1.058 0.438,-1.39 0.289,-0.336 0.695,-0.5 1.219,-0.5 0.238,0 0.472,0.031 0.703,0.093 0.226,0.063 0.457,0.157 0.687,0.282 V 2.591 C 93.176,2.485 92.941,2.407 92.703,2.356 92.461,2.305 92.207,2.278 91.938,2.278 c -0.743,0 -1.329,0.227 -1.766,0.688 -0.438,0.468 -0.656,1.097 -0.656,1.89 0,0.801 0.218,1.43 0.656,1.891 0.437,0.469 1.039,0.703 1.812,0.703 0.25,0 0.493,-0.027 0.735,-0.078 0.238,-0.055 0.469,-0.133 0.687,-0.235 z" /><path
         id="path68"
         style="fill:#000000;fill-opacity:1;fill-rule:nonzero;stroke:none"
         d="m 220.027,9.559 -2.015,-2.015 2.015,-2 -0.531,-0.532 -2.016,2.016 -2.015,-2.016 -0.516,0.532 2,2 -2,2.015 0.516,0.532 2.015,-2.016 2.016,2.016 z m 2.684,-4.093 v -2.61 h -0.813 v 6.797 h 0.813 v -0.75 c 0.176,0.289 0.391,0.508 0.641,0.656 0.257,0.145 0.57,0.219 0.937,0.219 0.594,0 1.078,-0.242 1.453,-0.719 0.375,-0.48 0.563,-1.105 0.563,-1.875 0,-0.773 -0.188,-1.398 -0.563,-1.875 -0.375,-0.468 -0.859,-0.703 -1.453,-0.703 -0.367,0 -0.68,0.07 -0.937,0.203 -0.25,0.145 -0.465,0.364 -0.641,0.657 z m 2.75,1.718 c 0,0.594 -0.125,1.055 -0.375,1.391 -0.242,0.344 -0.574,0.516 -1,0.516 -0.43,0 -0.766,-0.172 -1.016,-0.516 -0.242,-0.336 -0.359,-0.797 -0.359,-1.391 0,-0.593 0.117,-1.062 0.359,-1.406 0.25,-0.336 0.586,-0.5 1.016,-0.5 0.426,0 0.758,0.164 1,0.5 0.25,0.344 0.375,0.813 0.375,1.406 z" /><path
         id="path70"
         style="fill:#000000;fill-opacity:1;fill-rule:nonzero;stroke:none"
         d="M 230.656,7.755 V 6.989 c -0.23,0.113 -0.468,0.195 -0.718,0.25 -0.243,0.062 -0.493,0.094 -0.75,0.094 -0.407,0 -0.711,-0.063 -0.907,-0.188 -0.199,-0.117 -0.297,-0.297 -0.297,-0.547 0,-0.187 0.067,-0.336 0.204,-0.437 0.144,-0.106 0.437,-0.211 0.874,-0.313 l 0.266,-0.062 c 0.582,-0.125 0.992,-0.305 1.234,-0.531 0.239,-0.219 0.36,-0.528 0.36,-0.922 0,-0.461 -0.184,-0.825 -0.547,-1.094 -0.355,-0.262 -0.852,-0.391 -1.484,-0.391 -0.274,0 -0.547,0.028 -0.829,0.078 -0.281,0.051 -0.585,0.129 -0.906,0.235 v 0.828 c 0.301,-0.156 0.598,-0.277 0.891,-0.359 0.289,-0.075 0.578,-0.11 0.859,-0.11 0.375,0 0.664,0.063 0.875,0.188 0.207,0.133 0.313,0.32 0.313,0.562 0,0.219 -0.078,0.383 -0.235,0.5 -0.148,0.125 -0.468,0.238 -0.968,0.344 l -0.282,0.062 c -0.5,0.102 -0.867,0.266 -1.093,0.485 -0.219,0.219 -0.328,0.519 -0.328,0.906 0,0.457 0.16,0.813 0.484,1.063 0.332,0.257 0.801,0.39 1.406,0.39 0.301,0 0.582,-0.027 0.844,-0.078 0.269,-0.043 0.516,-0.105 0.734,-0.187 z" /><path
         id="path72"
         style="fill:#000000;fill-opacity:1;fill-rule:nonzero;stroke:none"
         d="m 274.883,10.704 -2.016,-2.016 2.016,-2 -0.531,-0.531 -2.016,2.016 -2.016,-2.016 -0.515,0.531 2,2 -2,2.016 0.515,0.531 2.016,-2.016 2.016,2.016 z M 277.57,6.61 V 4.001 h -0.812 v 6.797 h 0.812 v -0.75 c 0.176,0.289 0.391,0.507 0.641,0.656 0.258,0.144 0.57,0.219 0.937,0.219 0.594,0 1.079,-0.243 1.454,-0.719 0.375,-0.481 0.562,-1.106 0.562,-1.875 0,-0.774 -0.187,-1.399 -0.562,-1.875 -0.375,-0.469 -0.86,-0.703 -1.454,-0.703 -0.367,0 -0.679,0.07 -0.937,0.203 -0.25,0.144 -0.465,0.363 -0.641,0.656 z m 2.75,1.719 c 0,0.594 -0.125,1.054 -0.375,1.39 -0.242,0.344 -0.574,0.516 -1,0.516 -0.429,0 -0.765,-0.172 -1.015,-0.516 -0.242,-0.336 -0.36,-0.796 -0.36,-1.39 0,-0.594 0.118,-1.063 0.36,-1.406 0.25,-0.336 0.586,-0.5 1.015,-0.5 0.426,0 0.758,0.164 1,0.5 0.25,0.343 0.375,0.812 0.375,1.406 z" /><path
         id="path74"
         style="fill:#000000;fill-opacity:1;fill-rule:nonzero;stroke:none"
         d="m 285.922,8.848 v -0.75 c -0.231,0.125 -0.461,0.219 -0.688,0.282 -0.23,0.062 -0.464,0.093 -0.703,0.093 -0.523,0 -0.929,-0.168 -1.219,-0.5 -0.292,-0.336 -0.437,-0.804 -0.437,-1.406 0,-0.594 0.145,-1.059 0.437,-1.391 0.29,-0.335 0.696,-0.5 1.219,-0.5 0.239,0 0.473,0.032 0.703,0.094 0.227,0.063 0.457,0.156 0.688,0.281 v -0.75 c -0.231,-0.105 -0.465,-0.183 -0.703,-0.234 -0.242,-0.051 -0.496,-0.078 -0.766,-0.078 -0.742,0 -1.328,0.227 -1.765,0.687 -0.438,0.469 -0.657,1.098 -0.657,1.891 0,0.801 0.219,1.43 0.657,1.891 0.437,0.468 1.039,0.703 1.812,0.703 0.25,0 0.492,-0.028 0.734,-0.078 0.239,-0.055 0.469,-0.133 0.688,-0.235 z" /><path
         id="path76"
         style="fill:#000000;fill-opacity:1;fill-rule:nonzero;stroke:none"
         d="m 308.207,9.723 -2.016,-2.015 2.016,-2 -0.531,-0.532 -2.016,2.016 -2.015,-2.016 -0.516,0.532 2,2 -2,2.015 0.516,0.532 2.015,-2.016 2.016,2.016 z M 310.895,5.63 V 3.02 h -0.813 v 6.797 h 0.813 v -0.75 c 0.175,0.289 0.39,0.508 0.64,0.656 0.258,0.145 0.57,0.219 0.938,0.219 0.593,0 1.078,-0.242 1.453,-0.719 0.375,-0.48 0.562,-1.105 0.562,-1.875 0,-0.773 -0.187,-1.398 -0.562,-1.875 -0.375,-0.468 -0.86,-0.703 -1.453,-0.703 -0.368,0 -0.68,0.071 -0.938,0.203 -0.25,0.145 -0.465,0.364 -0.64,0.657 z m 2.75,1.718 c 0,0.594 -0.125,1.055 -0.375,1.391 -0.243,0.344 -0.575,0.516 -1,0.516 -0.43,0 -0.766,-0.172 -1.016,-0.516 -0.242,-0.336 -0.359,-0.797 -0.359,-1.391 0,-0.593 0.117,-1.062 0.359,-1.406 0.25,-0.336 0.586,-0.5 1.016,-0.5 0.425,0 0.757,0.164 1,0.5 0.25,0.344 0.375,0.813 0.375,1.406 z" /><path
         id="path78"
         style="fill:#000000;fill-opacity:1;fill-rule:nonzero;stroke:none"
         d="m 319.246,7.868 v -0.75 c -0.23,0.125 -0.461,0.219 -0.687,0.281 -0.231,0.063 -0.465,0.094 -0.704,0.094 -0.523,0 -0.929,-0.168 -1.218,-0.5 -0.293,-0.336 -0.438,-0.805 -0.438,-1.406 0,-0.594 0.145,-1.059 0.438,-1.391 0.289,-0.336 0.695,-0.5 1.218,-0.5 0.239,0 0.473,0.031 0.704,0.094 0.226,0.062 0.457,0.156 0.687,0.281 v -0.75 c -0.23,-0.105 -0.465,-0.184 -0.703,-0.234 -0.242,-0.051 -0.496,-0.079 -0.766,-0.079 -0.742,0 -1.328,0.227 -1.765,0.688 -0.438,0.469 -0.657,1.098 -0.657,1.891 0,0.8 0.219,1.429 0.657,1.89 0.437,0.469 1.039,0.703 1.812,0.703 0.25,0 0.492,-0.027 0.735,-0.078 0.238,-0.054 0.468,-0.133 0.687,-0.234 z" /><path
         id="path80"
         style="fill:#000000;fill-opacity:1;fill-rule:nonzero;stroke:none"
         d="m 337.352,11.438 -2.016,-2.015 2.016,-2 -0.532,-0.532 -2.015,2.016 -2.016,-2.016 -0.516,0.532 2,2 -2,2.015 0.516,0.531 2.016,-2.015 2.015,2.015 z m 2.683,-4.094 V 4.735 h -0.812 v 6.797 h 0.812 v -0.75 c 0.176,0.289 0.391,0.508 0.641,0.656 0.258,0.145 0.57,0.219 0.937,0.219 0.594,0 1.078,-0.242 1.453,-0.719 0.375,-0.48 0.563,-1.105 0.563,-1.875 0,-0.773 -0.188,-1.398 -0.563,-1.875 -0.375,-0.469 -0.859,-0.703 -1.453,-0.703 -0.367,0 -0.679,0.07 -0.937,0.203 -0.25,0.145 -0.465,0.363 -0.641,0.656 z m 2.75,1.719 c 0,0.594 -0.125,1.055 -0.375,1.391 -0.242,0.344 -0.574,0.515 -1,0.515 -0.43,0 -0.765,-0.171 -1.015,-0.515 -0.243,-0.336 -0.36,-0.797 -0.36,-1.391 0,-0.594 0.117,-1.062 0.36,-1.406 0.25,-0.336 0.585,-0.5 1.015,-0.5 0.426,0 0.758,0.164 1,0.5 0.25,0.344 0.375,0.812 0.375,1.406 z" /><path
         id="path82"
         style="fill:#000000;fill-opacity:1;fill-rule:nonzero;stroke:none"
         d="M 348.934,7.817 V 4.848 h -0.813 v 2.938 c 0,0.469 -0.09,0.816 -0.266,1.047 -0.179,0.238 -0.449,0.359 -0.812,0.359 -0.438,0 -0.789,-0.141 -1.047,-0.422 -0.25,-0.281 -0.375,-0.664 -0.375,-1.14 V 4.848 h -0.812 V 9.77 h 0.812 V 9.005 c 0.195,0.289 0.426,0.507 0.688,0.656 0.257,0.156 0.562,0.234 0.906,0.234 0.562,0 0.988,-0.179 1.281,-0.531 0.289,-0.356 0.438,-0.871 0.438,-1.547 z m 4.632,1.813 V 8.864 c -0.23,0.113 -0.468,0.195 -0.718,0.25 -0.243,0.062 -0.493,0.094 -0.75,0.094 -0.407,0 -0.711,-0.063 -0.907,-0.188 -0.199,-0.117 -0.296,-0.297 -0.296,-0.547 0,-0.187 0.066,-0.336 0.203,-0.437 0.144,-0.106 0.437,-0.211 0.875,-0.313 l 0.265,-0.062 c 0.582,-0.125 0.992,-0.305 1.235,-0.531 0.238,-0.219 0.359,-0.528 0.359,-0.922 0,-0.461 -0.184,-0.825 -0.547,-1.094 -0.355,-0.262 -0.851,-0.391 -1.484,-0.391 -0.274,0 -0.547,0.028 -0.828,0.078 -0.282,0.051 -0.586,0.129 -0.907,0.235 v 0.828 c 0.301,-0.156 0.598,-0.277 0.891,-0.359 0.289,-0.075 0.578,-0.11 0.859,-0.11 0.375,0 0.664,0.063 0.875,0.188 0.207,0.133 0.313,0.32 0.313,0.562 0,0.219 -0.078,0.383 -0.234,0.5 -0.149,0.125 -0.469,0.238 -0.969,0.344 l -0.281,0.062 c -0.5,0.102 -0.868,0.266 -1.094,0.485 -0.219,0.219 -0.328,0.519 -0.328,0.906 0,0.457 0.16,0.813 0.484,1.063 0.332,0.257 0.801,0.39 1.406,0.39 0.301,0 0.582,-0.027 0.844,-0.078 0.27,-0.043 0.516,-0.105 0.734,-0.187 z" /><path
         id="path84"
         style="fill:#000000;fill-opacity:1;fill-rule:nonzero;stroke:none"
         d="m 361.754,11.356 -2.016,-2.015 2.016,-2 -0.531,-0.532 -2.016,2.016 -2.016,-2.016 -0.515,0.532 2,2 -2,2.015 0.515,0.531 2.016,-2.015 2.016,2.015 z m 2.687,-4.094 V 4.653 h -0.812 v 6.797 h 0.812 V 10.7 c 0.176,0.289 0.391,0.508 0.641,0.656 0.258,0.145 0.57,0.219 0.938,0.219 0.593,0 1.078,-0.242 1.453,-0.719 0.375,-0.48 0.562,-1.105 0.562,-1.875 0,-0.773 -0.187,-1.398 -0.562,-1.875 -0.375,-0.469 -0.86,-0.703 -1.453,-0.703 -0.368,0 -0.68,0.07 -0.938,0.203 -0.25,0.145 -0.465,0.363 -0.641,0.656 z m 2.75,1.719 c 0,0.594 -0.125,1.055 -0.375,1.391 -0.242,0.344 -0.574,0.515 -1,0.515 -0.429,0 -0.765,-0.171 -1.015,-0.515 -0.242,-0.336 -0.36,-0.797 -0.36,-1.391 0,-0.594 0.118,-1.062 0.36,-1.406 0.25,-0.336 0.586,-0.5 1.015,-0.5 0.426,0 0.758,0.164 1,0.5 0.25,0.344 0.375,0.812 0.375,1.406 z" /><path
         id="path86"
         style="fill:#000000;fill-opacity:1;fill-rule:nonzero;stroke:none"
         d="M 373.34,7.739 V 4.77 h -0.813 v 2.938 c 0,0.468 -0.089,0.816 -0.265,1.047 -0.18,0.238 -0.45,0.359 -0.813,0.359 -0.437,0 -0.789,-0.141 -1.047,-0.422 -0.25,-0.281 -0.375,-0.664 -0.375,-1.141 V 4.77 h -0.812 v 4.922 h 0.812 V 8.926 c 0.196,0.29 0.426,0.508 0.688,0.657 0.258,0.156 0.562,0.234 0.906,0.234 0.563,0 0.988,-0.18 1.281,-0.531 0.289,-0.356 0.438,-0.871 0.438,-1.547 z m 5.039,1.766 v -0.75 c -0.231,0.125 -0.461,0.218 -0.688,0.281 -0.23,0.062 -0.464,0.094 -0.703,0.094 -0.523,0 -0.929,-0.168 -1.218,-0.5 -0.293,-0.336 -0.438,-0.805 -0.438,-1.407 0,-0.593 0.145,-1.058 0.438,-1.39 0.289,-0.336 0.695,-0.5 1.218,-0.5 0.239,0 0.473,0.031 0.703,0.093 0.227,0.063 0.457,0.157 0.688,0.282 v -0.75 c -0.231,-0.106 -0.465,-0.184 -0.703,-0.235 -0.242,-0.05 -0.496,-0.078 -0.766,-0.078 -0.742,0 -1.328,0.227 -1.765,0.688 -0.438,0.468 -0.657,1.097 -0.657,1.89 0,0.801 0.219,1.43 0.657,1.891 0.437,0.469 1.039,0.703 1.812,0.703 0.25,0 0.492,-0.027 0.734,-0.078 0.239,-0.055 0.469,-0.133 0.688,-0.234 z" /><path
         id="path88"
         style="fill:#000000;fill-opacity:1;fill-rule:nonzero;stroke:none"
         d="m 163.746,10.298 -2.016,-2.016 2.016,-2 -0.531,-0.531 -2.016,2.015 -2.015,-2.015 -0.516,0.531 2,2 -2,2.016 0.516,0.531 2.015,-2.016 2.016,2.016 z m 2.688,-4.094 v -2.61 h -0.813 v 6.797 h 0.813 v -0.75 c 0.175,0.289 0.39,0.508 0.64,0.657 0.258,0.144 0.571,0.218 0.938,0.218 0.593,0 1.078,-0.242 1.453,-0.718 0.375,-0.481 0.562,-1.106 0.562,-1.875 0,-0.774 -0.187,-1.399 -0.562,-1.875 -0.375,-0.469 -0.86,-0.704 -1.453,-0.704 -0.367,0 -0.68,0.071 -0.938,0.204 -0.25,0.144 -0.465,0.363 -0.64,0.656 z m 2.75,1.719 c 0,0.593 -0.125,1.054 -0.375,1.39 -0.243,0.344 -0.575,0.516 -1,0.516 -0.43,0 -0.766,-0.172 -1.016,-0.516 -0.242,-0.336 -0.359,-0.797 -0.359,-1.39 0,-0.594 0.117,-1.063 0.359,-1.407 0.25,-0.336 0.586,-0.5 1.016,-0.5 0.425,0 0.757,0.164 1,0.5 0.25,0.344 0.375,0.813 0.375,1.407 z" /><path
         id="path90"
         style="fill:#000000;fill-opacity:1;fill-rule:nonzero;stroke:none"
         d="M 175.332,6.68 V 3.712 h -0.812 v 2.937 c 0,0.469 -0.09,0.817 -0.266,1.047 -0.18,0.238 -0.449,0.359 -0.813,0.359 -0.437,0 -0.789,-0.14 -1.046,-0.422 -0.25,-0.281 -0.375,-0.664 -0.375,-1.14 V 3.712 h -0.813 v 4.921 h 0.813 V 7.868 c 0.195,0.289 0.425,0.508 0.687,0.656 0.258,0.156 0.563,0.234 0.906,0.234 0.563,0 0.989,-0.179 1.282,-0.531 0.289,-0.355 0.437,-0.871 0.437,-1.547 z m 5.039,1.766 v -0.75 c -0.23,0.125 -0.461,0.219 -0.687,0.281 -0.231,0.063 -0.465,0.094 -0.704,0.094 -0.523,0 -0.929,-0.168 -1.218,-0.5 -0.293,-0.336 -0.438,-0.805 -0.438,-1.406 0,-0.594 0.145,-1.059 0.438,-1.391 0.289,-0.336 0.695,-0.5 1.218,-0.5 0.239,0 0.473,0.031 0.704,0.094 0.226,0.062 0.457,0.156 0.687,0.281 v -0.75 c -0.23,-0.105 -0.465,-0.183 -0.703,-0.234 -0.242,-0.051 -0.496,-0.078 -0.766,-0.078 -0.742,0 -1.328,0.226 -1.765,0.687 -0.438,0.469 -0.657,1.098 -0.657,1.891 0,0.801 0.219,1.429 0.657,1.89 0.437,0.469 1.039,0.703 1.812,0.703 0.25,0 0.492,-0.027 0.735,-0.078 0.238,-0.054 0.468,-0.132 0.687,-0.234 z" /><g
         transform="matrix(1,0,0,-1,0,215.65303)"
         id="g92"><path
           id="path94"
           style="fill:none;stroke:#000000;stroke-width:1.60000002;stroke-linecap:butt;stroke-linejoin:miter;stroke-miterlimit:4;stroke-dasharray:none;stroke-opacity:1"
           d="m 8,2.922 v 72 h 472" /></g><g
         transform="matrix(0,-1,-1,0,0,215.65303)"
         id="g96"><path
           id="path98"
           style="fill:#000000;fill-opacity:1;fill-rule:evenodd;stroke:#000000;stroke-width:1.60000002;stroke-linecap:butt;stroke-linejoin:miter;stroke-miterlimit:4;stroke-dasharray:none;stroke-opacity:1"
           d="M 18.922,-8 25.32,-14.398 2.922,-8 25.32,-1.602 Z" /></g><g
         transform="matrix(-1,0,0,1,0,215.65303)"
         id="g100"><path
           id="path102"
           style="fill:#000000;fill-opacity:1;fill-rule:evenodd;stroke:#000000;stroke-width:1.60000002;stroke-linecap:butt;stroke-linejoin:miter;stroke-miterlimit:4;stroke-dasharray:none;stroke-opacity:1"
           d="m -464,-74.922 6.398,-6.398 -22.398,6.398 22.398,6.402 z" /></g><path
         id="path104"
         style="fill:#000000;fill-opacity:1;fill-rule:nonzero;stroke:none"
         d="m 16.137,214.79 h 1.718 l 4.204,-7.938 v 7.938 h 1.25 v -9.485 h -1.735 l -4.203,7.922 v -7.922 h -1.234 z m 12.328,0.375 c -0.563,-0.969 -0.985,-1.934 -1.266,-2.891 -0.273,-0.949 -0.406,-1.914 -0.406,-2.891 0,-0.98 0.133,-1.949 0.406,-2.906 0.281,-0.961 0.703,-1.922 1.266,-2.89 h -1.016 c -0.637,1 -1.109,1.976 -1.422,2.937 -0.312,0.957 -0.468,1.91 -0.468,2.859 0,0.946 0.156,1.895 0.468,2.844 0.313,0.957 0.785,1.938 1.422,2.938 z m 3.344,-0.735 v -2.015 h 2.406 v -0.907 h -2.406 v -3.859 c 0,-0.586 0.078,-0.961 0.234,-1.125 0.164,-0.156 0.492,-0.234 0.984,-0.234 h 1.188 v -0.985 h -1.188 c -0.906,0 -1.531,0.164 -1.875,0.5 -0.343,0.344 -0.515,0.957 -0.515,1.844 v 3.859 h -0.86 v 0.907 h 0.86 v 2.015 z m 3.695,0.735 h 1.016 c 0.632,-1 1.109,-1.981 1.421,-2.938 0.313,-0.949 0.469,-1.898 0.469,-2.844 0,-0.949 -0.156,-1.902 -0.469,-2.859 -0.312,-0.961 -0.789,-1.937 -1.421,-2.937 h -1.016 c 0.562,0.968 0.976,1.929 1.25,2.89 0.281,0.957 0.422,1.926 0.422,2.906 0,0.977 -0.141,1.942 -0.422,2.891 -0.274,0.957 -0.688,1.922 -1.25,2.891 z" /><path
         id="path106"
         style="fill:#000000;fill-opacity:1;fill-rule:nonzero;stroke:none"
         d="M 460.09,160.716 V 158.7 h 2.406 v -0.906 h -2.406 v -3.86 c 0,-0.586 0.078,-0.961 0.234,-1.125 0.164,-0.156 0.492,-0.234 0.985,-0.234 h 1.187 v -0.984 h -1.187 c -0.907,0 -1.532,0.164 -1.875,0.5 -0.344,0.343 -0.516,0.957 -0.516,1.843 v 3.86 h -0.859 v 0.906 h 0.859 v 2.016 z" /></g></g></svg>