<?xml version="1.0" encoding="UTF-8" standalone="no"?>
<svg
   xmlns:dc="http://purl.org/dc/elements/1.1/"
   xmlns:cc="http://creativecommons.org/ns#"
   xmlns:rdf="http://www.w3.org/1999/02/22-rdf-syntax-ns#"
   xmlns:svg="http://www.w3.org/2000/svg"
   xmlns="http://www.w3.org/2000/svg"
   viewBox="0 0 643.89337 287.53738"
   height="287.53738"
   width="643.89337"
   xml:space="preserve"
   id="svg2"
   version="1.1"><metadata
     id="metadata8"><rdf:RDF><cc:Work
         rdf:about=""><dc:format>image/svg+xml</dc:format><dc:type
           rdf:resource="http://purl.org/dc/dcmitype/StillImage" /></cc:Work></rdf:RDF></metadata><defs
     id="defs6" /><g
     transform="matrix(1.3333333,0,0,-1.3333333,0,287.53737)"
     id="g10"><g
       id="g12"><g
         transform="matrix(1,0,0,-1,0,215.65303)"
         id="g14"><path
           id="path16"
           style="fill:none;stroke:#ff0000;stroke-width:1.60000002;stroke-linecap:butt;stroke-linejoin:miter;stroke-miterlimit:4;stroke-dasharray:none;stroke-opacity:1"
           d="m 8,58.922 h 80 v -16 h 80 v -16 h 56 v 16 h 56 v -16 h 32 v -16 h 32 v 16 h 24 v -16 h 16 v 16 h 32 v 16 h 56 v 16" /></g><g
         transform="matrix(1,0,0,-1,0,215.65303)"
         id="g18"><path
           id="path20"
           style="fill:none;stroke:#0000ff;stroke-width:1.60000002;stroke-linecap:butt;stroke-linejoin:miter;stroke-miterlimit:4;stroke-dasharray:none;stroke-opacity:1"
           d="m 8,122.922 h 80 v -24 h 136" /></g><g
         transform="matrix(1,0,0,-1,0,215.65303)"
         id="g22"><path
           id="path24"
           style="fill:none;stroke:#0000ff;stroke-width:1.60000002;stroke-linecap:butt;stroke-linejoin:miter;stroke-miterlimit:4;stroke-dasharray:none;stroke-opacity:1"
           d="m 88,122.922 v 24 h 192 v -24 h 104" /></g><g
         transform="matrix(1,0,0,-1,0,215.65303)"
         id="g26"><path
           id="path28"
           style="fill:none;stroke:#0000ff;stroke-width:1.60000002;stroke-linecap:butt;stroke-linejoin:miter;stroke-miterlimit:4;stroke-dasharray:none;stroke-opacity:1"
           d="m 280,146.922 v 24 h 32 v -24 h 160" /></g><g
         transform="matrix(1,0,0,-1,0,215.65303)"
         id="g30"><path
           id="path32"
           style="fill:none;stroke:#0000ff;stroke-width:1.60000002;stroke-linecap:butt;stroke-linejoin:miter;stroke-miterlimit:4;stroke-dasharray:none;stroke-opacity:1"
           d="m 312,170.922 v 24 h 104" /></g><g
         transform="matrix(1,0,0,-1,0,215.65303)"
         id="g34"><path
           id="path36"
           style="fill:none;stroke:#000000;stroke-width:1.60000002;stroke-linecap:butt;stroke-linejoin:miter;stroke-miterlimit:4;stroke-dasharray:none;stroke-opacity:1"
           d="m 8,2.922 v 72 h 472" /></g><g
         transform="matrix(0,-1,-1,0,0,215.65303)"
         id="g38"><path
           id="path40"
           style="fill:#000000;fill-opacity:1;fill-rule:evenodd;stroke:#000000;stroke-width:1.60000002;stroke-linecap:butt;stroke-linejoin:miter;stroke-miterlimit:4;stroke-dasharray:none;stroke-opacity:1"
           d="M 18.922,-8 25.32,-14.398 2.922,-8 25.32,-1.602 Z" /></g><g
         transform="matrix(-1,0,0,1,0,215.65303)"
         id="g42"><path
           id="path44"
           style="fill:#000000;fill-opacity:1;fill-rule:evenodd;stroke:#000000;stroke-width:1.60000002;stroke-linecap:butt;stroke-linejoin:miter;stroke-miterlimit:4;stroke-dasharray:none;stroke-opacity:1"
           d="m -464,-74.922 6.398,-6.398 -22.398,6.398 22.398,6.402 z" /></g><path
         id="path46"
         style="fill:#000000;fill-opacity:1;fill-rule:nonzero;stroke:none"
         d="m 16.137,214.79 h 1.718 l 4.204,-7.938 v 7.938 h 1.25 v -9.485 h -1.735 l -4.203,7.922 v -7.922 h -1.234 z m 12.328,0.375 c -0.563,-0.969 -0.985,-1.934 -1.266,-2.891 -0.273,-0.949 -0.406,-1.914 -0.406,-2.891 0,-0.98 0.133,-1.949 0.406,-2.906 0.281,-0.961 0.703,-1.922 1.266,-2.89 h -1.016 c -0.637,1 -1.109,1.976 -1.422,2.937 -0.312,0.957 -0.468,1.91 -0.468,2.859 0,0.946 0.156,1.895 0.468,2.844 0.313,0.957 0.785,1.938 1.422,2.938 z m 3.344,-0.735 v -2.015 h 2.406 v -0.907 h -2.406 v -3.859 c 0,-0.586 0.078,-0.961 0.234,-1.125 0.164,-0.156 0.492,-0.234 0.984,-0.234 h 1.188 v -0.985 h -1.188 c -0.906,0 -1.531,0.164 -1.875,0.5 -0.343,0.344 -0.515,0.957 -0.515,1.844 v 3.859 h -0.86 v 0.907 h 0.86 v 2.015 z m 3.695,0.735 h 1.016 c 0.632,-1 1.109,-1.981 1.421,-2.938 0.313,-0.949 0.469,-1.898 0.469,-2.844 0,-0.949 -0.156,-1.902 -0.469,-2.859 -0.312,-0.961 -0.789,-1.937 -1.421,-2.937 h -1.016 c 0.562,0.968 0.976,1.929 1.25,2.89 0.281,0.957 0.422,1.926 0.422,2.906 0,0.977 -0.141,1.942 -0.422,2.891 -0.274,0.957 -0.688,1.922 -1.25,2.891 z" /><path
         id="path48"
         style="fill:#000000;fill-opacity:1;fill-rule:nonzero;stroke:none"
         d="M 460.09,160.716 V 158.7 h 2.406 v -0.906 h -2.406 v -3.86 c 0,-0.586 0.078,-0.961 0.234,-1.125 0.164,-0.156 0.492,-0.234 0.985,-0.234 h 1.187 v -0.984 h -1.187 c -0.907,0 -1.532,0.164 -1.875,0.5 -0.344,0.343 -0.516,0.957 -0.516,1.843 v 3.86 h -0.859 v 0.906 h 0.859 v 2.016 z" /></g></g></svg>