<?xml version="1.0" encoding="UTF-8" standalone="no"?>
<!-- Created with Inkscape (http://www.inkscape.org/) -->

<svg
   xmlns:dc="http://purl.org/dc/elements/1.1/"
   xmlns:cc="http://creativecommons.org/ns#"
   xmlns:rdf="http://www.w3.org/1999/02/22-rdf-syntax-ns#"
   xmlns:svg="http://www.w3.org/2000/svg"
   xmlns="http://www.w3.org/2000/svg"
   xmlns:sodipodi="http://sodipodi.sourceforge.net/DTD/sodipodi-0.dtd"
   xmlns:inkscape="http://www.inkscape.org/namespaces/inkscape"
   width="112.77467mm"
   height="47.643108mm"
   viewBox="0 0 112.77467 47.643108"
   version="1.1"
   id="svg8681"
   inkscape:version="0.92.1 r15371"
   sodipodi:docname="reconstructed_bds_tree.svg">
  <defs
     id="defs8675" />
  <sodipodi:namedview
     id="base"
     pagecolor="#ffffff"
     bordercolor="#666666"
     borderopacity="1.0"
     inkscape:pageopacity="0.0"
     inkscape:pageshadow="2"
     inkscape:zoom="1.979899"
     inkscape:cx="203.07053"
     inkscape:cy="73.621954"
     inkscape:document-units="mm"
     inkscape:current-layer="layer1"
     showgrid="false"
     fit-margin-top="0"
     fit-margin-left="0"
     fit-margin-right="0"
     fit-margin-bottom="0"
     inkscape:window-width="1438"
     inkscape:window-height="879"
     inkscape:window-x="0"
     inkscape:window-y="0"
     inkscape:window-maximized="0" />
  <metadata
     id="metadata8678">
    <rdf:RDF>
      <cc:Work
         rdf:about="">
        <dc:format>image/svg+xml</dc:format>
        <dc:type
           rdf:resource="http://purl.org/dc/dcmitype/StillImage" />
        <dc:title></dc:title>
      </cc:Work>
    </rdf:RDF>
  </metadata>
  <g
     inkscape:label="Layer 1"
     inkscape:groupmode="layer"
     id="layer1"
     transform="translate(-31.303138,-65.291544)">
    <g
       id="g7315"
       transform="matrix(0.35277777,0,0,-0.35277777,64.035623,112.06929)">
      <path
         d="m 0,0 c 0,-1.216 -0.987,-2.203 -2.203,-2.203 -1.216,0 -2.204,0.987 -2.204,2.203 0,1.217 0.988,2.203 2.204,2.203 C -0.987,2.203 0,1.217 0,0"
         style="fill:#231f20;fill-opacity:1;fill-rule:evenodd;stroke:none"
         id="path7317"
         inkscape:connector-curvature="0" />
    </g>
    <g
       id="g7319"
       transform="matrix(0.35277777,0,0,-0.35277777,64.035623,112.06929)">
      <path
         d="m 0,0 c 0,-1.216 -0.987,-2.203 -2.203,-2.203 -1.216,0 -2.204,0.987 -2.204,2.203 0,1.217 0.988,2.203 2.204,2.203 C -0.987,2.203 0,1.217 0,0 Z"
         style="fill:none;stroke:#231f20;stroke-width:0.5;stroke-linecap:butt;stroke-linejoin:miter;stroke-miterlimit:10;stroke-dasharray:none;stroke-opacity:1"
         id="path7321"
         inkscape:connector-curvature="0" />
    </g>
    <g
       id="g7323"
       transform="matrix(0.35277777,0,0,-0.35277777,71.807669,112.06929)">
      <path
         d="m 0,0 c 0,-1.216 -0.986,-2.203 -2.203,-2.203 -1.217,0 -2.203,0.987 -2.203,2.203 0,1.217 0.986,2.203 2.203,2.203 C -0.986,2.203 0,1.217 0,0"
         style="fill:#231f20;fill-opacity:1;fill-rule:evenodd;stroke:none"
         id="path7325"
         inkscape:connector-curvature="0" />
    </g>
    <g
       id="g7327"
       transform="matrix(0.35277777,0,0,-0.35277777,71.807669,112.06929)">
      <path
         d="m 0,0 c 0,-1.216 -0.986,-2.203 -2.203,-2.203 -1.217,0 -2.203,0.987 -2.203,2.203 0,1.217 0.986,2.203 2.203,2.203 C -0.986,2.203 0,1.217 0,0 Z"
         style="fill:none;stroke:#231f20;stroke-width:0.5;stroke-linecap:butt;stroke-linejoin:miter;stroke-miterlimit:10;stroke-dasharray:none;stroke-opacity:1"
         id="path7329"
         inkscape:connector-curvature="0" />
    </g>
    <g
       id="g7331"
       transform="matrix(0.35277777,0,0,-0.35277777,79.580069,112.06929)">
      <path
         d="m 0,0 c 0,-1.216 -0.987,-2.203 -2.203,-2.203 -1.216,0 -2.203,0.987 -2.203,2.203 0,1.217 0.987,2.203 2.203,2.203 C -0.987,2.203 0,1.217 0,0"
         style="fill:#231f20;fill-opacity:1;fill-rule:evenodd;stroke:none"
         id="path7333"
         inkscape:connector-curvature="0" />
    </g>
    <g
       id="g7335"
       transform="matrix(0.35277777,0,0,-0.35277777,79.580069,112.06929)">
      <path
         d="m 0,0 c 0,-1.216 -0.987,-2.203 -2.203,-2.203 -1.216,0 -2.203,0.987 -2.203,2.203 0,1.217 0.987,2.203 2.203,2.203 C -0.987,2.203 0,1.217 0,0 Z"
         style="fill:none;stroke:#231f20;stroke-width:0.5;stroke-linecap:butt;stroke-linejoin:miter;stroke-miterlimit:10;stroke-dasharray:none;stroke-opacity:1"
         id="path7337"
         inkscape:connector-curvature="0" />
    </g>
    <g
       id="g7339"
       transform="matrix(0.35277777,0,0,-0.35277777,32.946024,112.06929)">
      <path
         d="m 0,0 c 0,-1.216 -0.987,-2.203 -2.203,-2.203 -1.216,0 -2.204,0.987 -2.204,2.203 0,1.217 0.988,2.203 2.204,2.203 C -0.987,2.203 0,1.217 0,0"
         style="fill:#231f20;fill-opacity:1;fill-rule:evenodd;stroke:none"
         id="path7341"
         inkscape:connector-curvature="0" />
    </g>
    <g
       id="g7343"
       transform="matrix(0.35277777,0,0,-0.35277777,32.946024,112.06929)">
      <path
         d="m 0,0 c 0,-1.216 -0.987,-2.203 -2.203,-2.203 -1.216,0 -2.204,0.987 -2.204,2.203 0,1.217 0.988,2.203 2.204,2.203 C -0.987,2.203 0,1.217 0,0 Z"
         style="fill:none;stroke:#231f20;stroke-width:0.5;stroke-linecap:butt;stroke-linejoin:miter;stroke-miterlimit:10;stroke-dasharray:none;stroke-opacity:1"
         id="path7345"
         inkscape:connector-curvature="0" />
    </g>
    <g
       id="g7347"
       transform="matrix(0.35277777,0,0,-0.35277777,87.817783,112.06929)">
      <path
         d="m 0,0 c 0,-1.216 -0.988,-2.203 -2.204,-2.203 -1.216,0 -2.203,0.987 -2.203,2.203 0,1.217 0.987,2.203 2.203,2.203 C -0.988,2.203 0,1.217 0,0"
         style="fill:#231f20;fill-opacity:1;fill-rule:evenodd;stroke:none"
         id="path7349"
         inkscape:connector-curvature="0" />
    </g>
    <g
       id="g7351"
       transform="matrix(0.35277777,0,0,-0.35277777,87.817783,112.06929)">
      <path
         d="m 0,0 c 0,-1.216 -0.988,-2.203 -2.204,-2.203 -1.216,0 -2.203,0.987 -2.203,2.203 0,1.217 0.987,2.203 2.203,2.203 C -0.988,2.203 0,1.217 0,0 Z"
         style="fill:none;stroke:#231f20;stroke-width:0.5;stroke-linecap:butt;stroke-linejoin:miter;stroke-miterlimit:10;stroke-dasharray:none;stroke-opacity:1"
         id="path7353"
         inkscape:connector-curvature="0" />
    </g>
    <g
       id="g7355"
       transform="matrix(0.35277777,0,0,-0.35277777,103.36258,112.06929)">
      <path
         d="m 0,0 c 0,-1.216 -0.987,-2.203 -2.203,-2.203 -1.217,0 -2.204,0.987 -2.204,2.203 0,1.217 0.987,2.203 2.204,2.203 C -0.987,2.203 0,1.217 0,0"
         style="fill:#231f20;fill-opacity:1;fill-rule:evenodd;stroke:none"
         id="path7357"
         inkscape:connector-curvature="0" />
    </g>
    <g
       id="g7359"
       transform="matrix(0.35277777,0,0,-0.35277777,103.36258,112.06929)">
      <path
         d="m 0,0 c 0,-1.216 -0.987,-2.203 -2.203,-2.203 -1.217,0 -2.204,0.987 -2.204,2.203 0,1.217 0.987,2.203 2.204,2.203 C -0.987,2.203 0,1.217 0,0 Z"
         style="fill:none;stroke:#231f20;stroke-width:0.5;stroke-linecap:butt;stroke-linejoin:miter;stroke-miterlimit:10;stroke-dasharray:none;stroke-opacity:1"
         id="path7361"
         inkscape:connector-curvature="0" />
    </g>
    <g
       id="g7363"
       transform="matrix(0.35277777,0,0,-0.35277777,111.13498,112.06929)">
      <path
         d="m 0,0 c 0,-1.216 -0.986,-2.203 -2.204,-2.203 -1.216,0 -2.203,0.987 -2.203,2.203 0,1.217 0.987,2.203 2.203,2.203 C -0.986,2.203 0,1.217 0,0"
         style="fill:#231f20;fill-opacity:1;fill-rule:evenodd;stroke:none"
         id="path7365"
         inkscape:connector-curvature="0" />
    </g>
    <g
       id="g7367"
       transform="matrix(0.35277777,0,0,-0.35277777,111.13498,112.06929)">
      <path
         d="m 0,0 c 0,-1.216 -0.986,-2.203 -2.204,-2.203 -1.216,0 -2.203,0.987 -2.203,2.203 0,1.217 0.987,2.203 2.203,2.203 C -0.986,2.203 0,1.217 0,0 Z"
         style="fill:none;stroke:#231f20;stroke-width:0.5;stroke-linecap:butt;stroke-linejoin:miter;stroke-miterlimit:10;stroke-dasharray:none;stroke-opacity:1"
         id="path7369"
         inkscape:connector-curvature="0" />
    </g>
    <g
       id="g7371"
       transform="matrix(0.35277777,0,0,-0.35277777,118.90703,112.06929)">
      <path
         d="m 0,0 c 0,-1.216 -0.986,-2.203 -2.203,-2.203 -1.216,0 -2.203,0.987 -2.203,2.203 0,1.217 0.987,2.203 2.203,2.203 C -0.986,2.203 0,1.217 0,0"
         style="fill:#231f20;fill-opacity:1;fill-rule:evenodd;stroke:none"
         id="path7373"
         inkscape:connector-curvature="0" />
    </g>
    <g
       id="g7375"
       transform="matrix(0.35277777,0,0,-0.35277777,118.90703,112.06929)">
      <path
         d="m 0,0 c 0,-1.216 -0.986,-2.203 -2.203,-2.203 -1.216,0 -2.203,0.987 -2.203,2.203 0,1.217 0.987,2.203 2.203,2.203 C -0.986,2.203 0,1.217 0,0 Z"
         style="fill:none;stroke:#231f20;stroke-width:0.5;stroke-linecap:butt;stroke-linejoin:miter;stroke-miterlimit:10;stroke-dasharray:none;stroke-opacity:1"
         id="path7377"
         inkscape:connector-curvature="0" />
    </g>
    <g
       id="g7379"
       transform="matrix(0.35277777,0,0,-0.35277777,126.67943,112.06929)">
      <path
         d="m 0,0 c 0,-1.216 -0.987,-2.203 -2.203,-2.203 -1.217,0 -2.203,0.987 -2.203,2.203 0,1.217 0.986,2.203 2.203,2.203 C -0.987,2.203 0,1.217 0,0"
         style="fill:#231f20;fill-opacity:1;fill-rule:evenodd;stroke:none"
         id="path7381"
         inkscape:connector-curvature="0" />
    </g>
    <g
       id="g7383"
       transform="matrix(0.35277777,0,0,-0.35277777,126.67943,112.06929)">
      <path
         d="m 0,0 c 0,-1.216 -0.987,-2.203 -2.203,-2.203 -1.217,0 -2.203,0.987 -2.203,2.203 0,1.217 0.986,2.203 2.203,2.203 C -0.987,2.203 0,1.217 0,0 Z"
         style="fill:none;stroke:#231f20;stroke-width:0.5;stroke-linecap:butt;stroke-linejoin:miter;stroke-miterlimit:10;stroke-dasharray:none;stroke-opacity:1"
         id="path7385"
         inkscape:connector-curvature="0" />
    </g>
    <g
       id="g7387"
       transform="matrix(0.35277777,0,0,-0.35277777,95.589829,80.979688)">
      <path
         d="m 0,0 c 0,-1.216 -0.986,-2.204 -2.203,-2.204 -1.216,0 -2.203,0.988 -2.203,2.204 0,1.217 0.987,2.203 2.203,2.203 C -0.986,2.203 0,1.217 0,0"
         style="fill:#231f20;fill-opacity:1;fill-rule:evenodd;stroke:none"
         id="path7389"
         inkscape:connector-curvature="0" />
    </g>
    <g
       id="g7391"
       transform="matrix(0.35277777,0,0,-0.35277777,95.589829,80.979688)">
      <path
         d="m 0,0 c 0,-1.216 -0.986,-2.204 -2.203,-2.204 -1.216,0 -2.203,0.988 -2.203,2.204 0,1.217 0.987,2.203 2.203,2.203 C -0.986,2.203 0,1.217 0,0 Z"
         style="fill:none;stroke:#231f20;stroke-width:0.5;stroke-linecap:butt;stroke-linejoin:miter;stroke-miterlimit:10;stroke-dasharray:none;stroke-opacity:1"
         id="path7393"
         inkscape:connector-curvature="0" />
    </g>
    <g
       id="g7395"
       transform="matrix(0.35277777,0,0,-0.35277777,52.376669,80.979688)">
      <path
         d="m 0,0 c 0,-1.216 -0.986,-2.204 -2.203,-2.204 -1.216,0 -2.203,0.988 -2.203,2.204 0,1.217 0.987,2.203 2.203,2.203 C -0.986,2.203 0,1.217 0,0"
         style="fill:#231f20;fill-opacity:1;fill-rule:evenodd;stroke:none"
         id="path7397"
         inkscape:connector-curvature="0" />
    </g>
    <g
       id="g7399"
       transform="matrix(0.35277777,0,0,-0.35277777,52.376669,80.979688)">
      <path
         d="m 0,0 c 0,-1.216 -0.986,-2.204 -2.203,-2.204 -1.216,0 -2.203,0.988 -2.203,2.204 0,1.217 0.987,2.203 2.203,2.203 C -0.986,2.203 0,1.217 0,0 Z"
         style="fill:none;stroke:#231f20;stroke-width:0.5;stroke-linecap:butt;stroke-linejoin:miter;stroke-miterlimit:10;stroke-dasharray:none;stroke-opacity:1"
         id="path7401"
         inkscape:connector-curvature="0" />
    </g>
    <g
       id="g7403"
       transform="matrix(0.35277777,0,0,-0.35277777,103.36258,98.467586)">
      <path
         d="m 0,0 c 0,-1.217 -0.987,-2.204 -2.203,-2.204 -1.217,0 -2.204,0.987 -2.204,2.204 0,1.216 0.987,2.203 2.204,2.203 C -0.987,2.203 0,1.216 0,0"
         style="fill:#231f20;fill-opacity:1;fill-rule:evenodd;stroke:none"
         id="path7405"
         inkscape:connector-curvature="0" />
    </g>
    <g
       id="g7407"
       transform="matrix(0.35277777,0,0,-0.35277777,103.36258,98.467586)">
      <path
         d="m 0,0 c 0,-1.217 -0.987,-2.204 -2.203,-2.204 -1.217,0 -2.204,0.987 -2.204,2.204 0,1.216 0.987,2.203 2.204,2.203 C -0.987,2.203 0,1.216 0,0 Z"
         style="fill:none;stroke:#231f20;stroke-width:0.5;stroke-linecap:butt;stroke-linejoin:miter;stroke-miterlimit:10;stroke-dasharray:none;stroke-opacity:1"
         id="path7409"
         inkscape:connector-curvature="0" />
    </g>
    <g
       id="g7411"
       transform="matrix(0.35277777,0,0,-0.35277777,126.67943,94.581389)">
      <path
         d="m 0,0 c 0,-1.216 -0.987,-2.203 -2.203,-2.203 -1.217,0 -2.203,0.987 -2.203,2.203 0,1.216 0.986,2.203 2.203,2.203 C -0.987,2.203 0,1.216 0,0"
         style="fill:#231f20;fill-opacity:1;fill-rule:evenodd;stroke:none"
         id="path7413"
         inkscape:connector-curvature="0" />
    </g>
    <g
       id="g7415"
       transform="matrix(0.35277777,0,0,-0.35277777,126.67943,94.581389)">
      <path
         d="m 0,0 c 0,-1.216 -0.987,-2.203 -2.203,-2.203 -1.217,0 -2.203,0.987 -2.203,2.203 0,1.216 0.986,2.203 2.203,2.203 C -0.987,2.203 0,1.216 0,0 Z"
         style="fill:none;stroke:#231f20;stroke-width:0.5;stroke-linecap:butt;stroke-linejoin:miter;stroke-miterlimit:10;stroke-dasharray:none;stroke-opacity:1"
         id="path7417"
         inkscape:connector-curvature="0" />
    </g>
    <g
       id="g7419"
       transform="matrix(0.35277777,0,0,-0.35277777,83.466269,94.387007)">
      <path
         d="m 0,0 c 0,-1.216 -0.986,-2.203 -2.203,-2.203 -1.216,0 -2.204,0.987 -2.204,2.203 0,1.216 0.988,2.204 2.204,2.204 C -0.986,2.204 0,1.216 0,0"
         style="fill:#231f20;fill-opacity:1;fill-rule:evenodd;stroke:none"
         id="path7421"
         inkscape:connector-curvature="0" />
    </g>
    <g
       id="g7423"
       transform="matrix(0.35277777,0,0,-0.35277777,83.466269,94.387007)">
      <path
         d="m 0,0 c 0,-1.216 -0.986,-2.203 -2.203,-2.203 -1.216,0 -2.204,0.987 -2.204,2.203 0,1.216 0.988,2.204 2.204,2.204 C -0.986,2.204 0,1.216 0,0 Z"
         style="fill:none;stroke:#231f20;stroke-width:0.5;stroke-linecap:butt;stroke-linejoin:miter;stroke-miterlimit:10;stroke-dasharray:none;stroke-opacity:1"
         id="path7425"
         inkscape:connector-curvature="0" />
    </g>
    <g
       id="g7427"
       transform="matrix(0.35277777,0,0,-0.35277777,56.262869,98.467586)">
      <path
         d="m 0,0 c 0,-1.217 -0.987,-2.204 -2.203,-2.204 -1.217,0 -2.203,0.987 -2.203,2.204 0,1.216 0.986,2.203 2.203,2.203 C -0.987,2.203 0,1.216 0,0"
         style="fill:#231f20;fill-opacity:1;fill-rule:evenodd;stroke:none"
         id="path7429"
         inkscape:connector-curvature="0" />
    </g>
    <g
       id="g7431"
       transform="matrix(0.35277777,0,0,-0.35277777,56.262869,98.467586)">
      <path
         d="m 0,0 c 0,-1.217 -0.987,-2.204 -2.203,-2.204 -1.217,0 -2.203,0.987 -2.203,2.204 0,1.216 0.986,2.203 2.203,2.203 C -0.987,2.203 0,1.216 0,0 Z"
         style="fill:none;stroke:#231f20;stroke-width:0.5;stroke-linecap:butt;stroke-linejoin:miter;stroke-miterlimit:10;stroke-dasharray:none;stroke-opacity:1"
         id="path7433"
         inkscape:connector-curvature="0" />
    </g>
    <g
       id="g7435"
       transform="matrix(0.35277777,0,0,-0.35277777,95.589829,109.15464)">
      <path
         d="m 0,0 c 0,-1.216 -0.986,-2.203 -2.203,-2.203 -1.216,0 -2.203,0.987 -2.203,2.203 0,1.216 0.987,2.203 2.203,2.203 C -0.986,2.203 0,1.216 0,0"
         style="fill:#231f20;fill-opacity:1;fill-rule:evenodd;stroke:none"
         id="path7437"
         inkscape:connector-curvature="0" />
    </g>
    <g
       id="g7439"
       transform="matrix(0.35277777,0,0,-0.35277777,95.589829,109.15464)">
      <path
         d="m 0,0 c 0,-1.216 -0.986,-2.203 -2.203,-2.203 -1.216,0 -2.203,0.987 -2.203,2.203 0,1.216 0.987,2.203 2.203,2.203 C -0.986,2.203 0,1.216 0,0 Z"
         style="fill:none;stroke:#231f20;stroke-width:0.5;stroke-linecap:butt;stroke-linejoin:miter;stroke-miterlimit:10;stroke-dasharray:none;stroke-opacity:1"
         id="path7441"
         inkscape:connector-curvature="0" />
    </g>
    <g
       id="g7443"
       transform="matrix(0.35277777,0,0,-0.35277777,40.71807,109.15464)">
      <path
         d="m 0,0 c 0,-1.216 -0.986,-2.203 -2.203,-2.203 -1.216,0 -2.203,0.987 -2.203,2.203 0,1.216 0.987,2.203 2.203,2.203 C -0.986,2.203 0,1.216 0,0"
         style="fill:#231f20;fill-opacity:1;fill-rule:evenodd;stroke:none"
         id="path7445"
         inkscape:connector-curvature="0" />
    </g>
    <g
       id="g7447"
       transform="matrix(0.35277777,0,0,-0.35277777,40.71807,109.15464)">
      <path
         d="m 0,0 c 0,-1.216 -0.986,-2.203 -2.203,-2.203 -1.216,0 -2.203,0.987 -2.203,2.203 0,1.216 0.987,2.203 2.203,2.203 C -0.986,2.203 0,1.216 0,0 Z"
         style="fill:none;stroke:#231f20;stroke-width:0.5;stroke-linecap:butt;stroke-linejoin:miter;stroke-miterlimit:10;stroke-dasharray:none;stroke-opacity:1"
         id="path7449"
         inkscape:connector-curvature="0" />
    </g>
    <g
       id="g7451"
       transform="matrix(0.35277777,0,0,-0.35277777,64.035623,104.29689)">
      <path
         d="m 0,0 c 0,-1.217 -0.987,-2.203 -2.203,-2.203 -1.216,0 -2.204,0.986 -2.204,2.203 0,1.216 0.988,2.203 2.204,2.203 C -0.987,2.203 0,1.216 0,0"
         style="fill:#231f20;fill-opacity:1;fill-rule:evenodd;stroke:none"
         id="path7453"
         inkscape:connector-curvature="0" />
    </g>
    <g
       id="g7455"
       transform="matrix(0.35277777,0,0,-0.35277777,64.035623,104.29689)">
      <path
         d="m 0,0 c 0,-1.217 -0.987,-2.203 -2.203,-2.203 -1.216,0 -2.204,0.986 -2.204,2.203 0,1.216 0.988,2.203 2.204,2.203 C -0.987,2.203 0,1.216 0,0 Z"
         style="fill:none;stroke:#231f20;stroke-width:0.5;stroke-linecap:butt;stroke-linejoin:miter;stroke-miterlimit:10;stroke-dasharray:none;stroke-opacity:1"
         id="path7457"
         inkscape:connector-curvature="0" />
    </g>
    <g
       id="g7459"
       transform="matrix(0.35277777,0,0,-0.35277777,111.13498,104.29689)">
      <path
         d="m 0,0 c 0,-1.217 -0.986,-2.203 -2.204,-2.203 -1.216,0 -2.203,0.986 -2.203,2.203 0,1.216 0.987,2.203 2.203,2.203 C -0.986,2.203 0,1.216 0,0"
         style="fill:#231f20;fill-opacity:1;fill-rule:evenodd;stroke:none"
         id="path7461"
         inkscape:connector-curvature="0" />
    </g>
    <g
       id="g7463"
       transform="matrix(0.35277777,0,0,-0.35277777,111.13498,104.29689)">
      <path
         d="m 0,0 c 0,-1.217 -0.986,-2.203 -2.204,-2.203 -1.216,0 -2.203,0.986 -2.203,2.203 0,1.216 0.987,2.203 2.203,2.203 C -0.986,2.203 0,1.216 0,0 Z"
         style="fill:none;stroke:#231f20;stroke-width:0.5;stroke-linecap:butt;stroke-linejoin:miter;stroke-miterlimit:10;stroke-dasharray:none;stroke-opacity:1"
         id="path7465"
         inkscape:connector-curvature="0" />
      <g
         id="g7467"
         transform="translate(-212.826)">
        <path
           d="M 0,0 V 44.064 H 44.064 V 22.032 H 55.08 v -33.048"
           style="fill:none;stroke:#231f20;stroke-width:0.5;stroke-linecap:butt;stroke-linejoin:miter;stroke-miterlimit:10;stroke-dasharray:none;stroke-opacity:1"
           id="path7469"
           inkscape:connector-curvature="0" />
        <g
           id="g7471"
           transform="translate(44.064,22.032)">
          <path
             d="M 0,0 H -11.016 V -11.016"
             style="fill:none;stroke:#231f20;stroke-width:0.5;stroke-linecap:butt;stroke-linejoin:miter;stroke-miterlimit:10;stroke-dasharray:none;stroke-opacity:1"
             id="path7473"
             inkscape:connector-curvature="0" />
          <g
             id="g7475"
             transform="translate(-22.032,22.033)">
            <path
               d="M 0,0 V 11.016 H 44.064 V -11.016"
               style="fill:none;stroke:#231f20;stroke-width:0.5;stroke-linecap:butt;stroke-linejoin:miter;stroke-miterlimit:10;stroke-dasharray:none;stroke-opacity:1"
               id="path7477"
               inkscape:connector-curvature="0" />
            <g
               id="g7479"
               transform="translate(22.032,11.016)">
              <path
                 d="M 0,0 V 22.032 H 55.08 V 5.508 H 44.064 V -16.524 H 33.048 v -60.588"
                 style="fill:none;stroke:#231f20;stroke-width:0.5;stroke-linecap:butt;stroke-linejoin:miter;stroke-miterlimit:10;stroke-dasharray:none;stroke-opacity:1"
                 id="path7481"
                 inkscape:connector-curvature="0" />
              <g
                 id="g7483"
                 transform="translate(44.064,-16.524)">
                <path
                   d="M 0,0 H 22.032 V -44.064 H 11.016 v -16.524"
                   style="fill:none;stroke:#231f20;stroke-width:0.5;stroke-linecap:butt;stroke-linejoin:miter;stroke-miterlimit:10;stroke-dasharray:none;stroke-opacity:1"
                   id="path7485"
                   inkscape:connector-curvature="0" />
                <g
                   id="g7487"
                   transform="translate(22.032,-44.064)">
                  <path
                     d="M 0,0 H 11.016 V -16.524"
                     style="fill:none;stroke:#231f20;stroke-width:0.5;stroke-linecap:butt;stroke-linejoin:miter;stroke-miterlimit:10;stroke-dasharray:none;stroke-opacity:1"
                     id="path7489"
                     inkscape:connector-curvature="0" />
                  <g
                     id="g7491"
                     transform="translate(-38.556,82.62)">
                    <path
                       d="M 0,0 V 11.016"
                       style="fill:none;stroke:#231f20;stroke-width:0.5;stroke-linecap:butt;stroke-linejoin:miter;stroke-miterlimit:10;stroke-dasharray:none;stroke-opacity:1"
                       id="path7493"
                       inkscape:connector-curvature="0" />
                    <g
                       id="g7495"
                       transform="translate(-27.54,-99.144)">
                      <path
                         d="M 0,0 V 11.016 H 22.032 V 0"
                         style="fill:none;stroke:#231f20;stroke-width:0.5;stroke-linecap:butt;stroke-linejoin:miter;stroke-miterlimit:10;stroke-dasharray:none;stroke-opacity:1"
                         id="path7497"
                         inkscape:connector-curvature="0" />
                      <g
                         id="g7499"
                         transform="translate(-55.08)">
                        <path
                           d="M 0,0 V 22.032 H 22.032 V 0"
                           style="fill:none;stroke:#231f20;stroke-width:0.5;stroke-linecap:butt;stroke-linejoin:miter;stroke-miterlimit:10;stroke-dasharray:none;stroke-opacity:1"
                           id="path7501"
                           inkscape:connector-curvature="0" />
                        <g
                           id="g7503"
                           transform="translate(249.177,82.62)">
                          <path
                             d="M 0,0 H 16.525 V -33.048"
                             style="fill:none;stroke:#231f20;stroke-width:0.5;stroke-linecap:butt;stroke-linejoin:miter;stroke-miterlimit:10;stroke-dasharray:none;stroke-opacity:1"
                             id="path7505"
                             inkscape:connector-curvature="0" />
                          <g
                             id="g7507"
                             transform="translate(-5.508,-82.62)">
                            <path
                               d="M 0,0 V 16.524 H 22.033 V 0"
                               style="fill:none;stroke:#231f20;stroke-width:0.5;stroke-linecap:butt;stroke-linejoin:miter;stroke-miterlimit:10;stroke-dasharray:none;stroke-opacity:1"
                               id="path7509"
                               inkscape:connector-curvature="0" />
                            <g
                               id="g7511"
                               transform="translate(11.017,16.524)">
                              <path
                                 d="M 0,0 V 44.064 H -22.033"
                                 style="fill:none;stroke:#231f20;stroke-width:0.5;stroke-linecap:butt;stroke-linejoin:miter;stroke-miterlimit:10;stroke-dasharray:none;stroke-opacity:1"
                                 id="path7513"
                                 inkscape:connector-curvature="0" />
                              <g
                                 id="g7515"
                                 transform="translate(-49.573,82.62)">
                                <path
                                   d="M 0,0 V 11.016"
                                   style="fill:none;stroke:#231f20;stroke-width:0.5;stroke-linecap:butt;stroke-linejoin:miter;stroke-miterlimit:10;stroke-dasharray:none;stroke-opacity:1"
                                   id="path7517"
                                   inkscape:connector-curvature="0" />
                                <g
                                   id="g7519"
                                   transform="translate(-27.54,-22.032)">
                                <path
                                   d="M 0,0 V 22.032 H 71.604 V 5.508 H 55.08 V -16.524 H 44.064 v -60.588"
                                   style="fill:none;stroke:#231f20;stroke-width:0.5;stroke-linecap:butt;stroke-linejoin:miter;stroke-miterlimit:10;stroke-dasharray:none;stroke-opacity:1"
                                   id="path7521"
                                   inkscape:connector-curvature="0" />
                                <g
                                   id="g7523"
                                   transform="translate(-22.032,-77.112)">
                                <path
                                   d="m 0,0 v 22.032 h 5.508 v 55.08 H 44.065 V 0"
                                   style="fill:none;stroke:#231f20;stroke-width:0.5;stroke-linecap:butt;stroke-linejoin:miter;stroke-miterlimit:10;stroke-dasharray:none;stroke-opacity:1"
                                   id="path7525"
                                   inkscape:connector-curvature="0" />
                                <g
                                   id="g7527"
                                   transform="translate(-45.382,82.62)">
                                <path
                                   d="M 0,0 H 33.048 V -55.08"
                                   style="fill:none;stroke:#231f20;stroke-width:0.5;stroke-linecap:butt;stroke-linejoin:miter;stroke-miterlimit:10;stroke-dasharray:none;stroke-opacity:1"
                                   id="path7529"
                                   inkscape:connector-curvature="0" />
                                <g
                                   id="g7531"
                                   transform="translate(50.89,-60.588)">
                                <path
                                   d="M 0,0 H 16.524 V -13.77"
                                   style="fill:none;stroke:#231f20;stroke-width:0.5;stroke-linecap:butt;stroke-linejoin:miter;stroke-miterlimit:10;stroke-dasharray:none;stroke-opacity:1"
                                   id="path7533"
                                   inkscape:connector-curvature="0" />
                                <g
                                   id="g7535"
                                   transform="translate(126.33,-22.032)">
                                <path
                                   d="M 0,0 V 132.192"
                                   style="fill:none;stroke:#231f20;stroke-width:0.5;stroke-linecap:butt;stroke-linejoin:miter;stroke-miterlimit:10;stroke-dasharray:none;stroke-opacity:1"
                                   id="path7537"
                                   inkscape:connector-curvature="0" />
                                <g
                                   id="g7539"
                                   transform="translate(1.102,127.161)">
                                <path
                                   d="M 0,0 -1.102,4.406 -2.204,0"
                                   style="fill:none;stroke:#231f20;stroke-width:0.5;stroke-linecap:butt;stroke-linejoin:miter;stroke-miterlimit:10;stroke-dasharray:none;stroke-opacity:1"
                                   id="path7541"
                                   inkscape:connector-curvature="0" />
                                <g
                                   id="g7543"
                                   transform="translate(-9.363,-17.001)">
                                <path
                                   d="M 0,0 H 8.261"
                                   style="fill:none;stroke:#231f20;stroke-width:0.5;stroke-linecap:butt;stroke-linejoin:miter;stroke-miterlimit:10;stroke-dasharray:none;stroke-opacity:1"
                                   id="path7545"
                                   inkscape:connector-curvature="0" />
                                <g
                                   id="g7547"
                                   transform="translate(0,-11.016)">
                                <path
                                   d="M 0,0 H 8.261"
                                   style="fill:none;stroke:#231f20;stroke-width:0.5;stroke-linecap:butt;stroke-linejoin:miter;stroke-miterlimit:10;stroke-dasharray:none;stroke-opacity:1"
                                   id="path7549"
                                   inkscape:connector-curvature="0" />
                                <g
                                   id="g7551"
                                   transform="translate(0,-22.032)">
                                <path
                                   d="M 0,0 H 8.261"
                                   style="fill:none;stroke:#231f20;stroke-width:0.5;stroke-linecap:butt;stroke-linejoin:miter;stroke-miterlimit:10;stroke-dasharray:none;stroke-opacity:1"
                                   id="path7553"
                                   inkscape:connector-curvature="0" />
                                <g
                                   id="g7555"
                                   transform="translate(0,-16.524)">
                                <path
                                   d="M 0,0 H 8.261"
                                   style="fill:none;stroke:#231f20;stroke-width:0.5;stroke-linecap:butt;stroke-linejoin:miter;stroke-miterlimit:10;stroke-dasharray:none;stroke-opacity:1"
                                   id="path7557"
                                   inkscape:connector-curvature="0" />
                                <g
                                   id="g7559"
                                   transform="translate(0,-44.064)">
                                <path
                                   d="M 0,0 H 8.261"
                                   style="fill:none;stroke:#231f20;stroke-width:0.5;stroke-linecap:butt;stroke-linejoin:miter;stroke-miterlimit:10;stroke-dasharray:none;stroke-opacity:1"
                                   id="path7561"
                                   inkscape:connector-curvature="0" />
                                <g
                                   id="g7563"
                                   transform="translate(0,66.096)">
                                <path
                                   d="M 0,0 H 8.261"
                                   style="fill:none;stroke:#231f20;stroke-width:0.5;stroke-linecap:butt;stroke-linejoin:miter;stroke-miterlimit:10;stroke-dasharray:none;stroke-opacity:1"
                                   id="path7565"
                                   inkscape:connector-curvature="0" />
                                <g
                                   id="g7567"
                                   transform="translate(0,-33.048)">
                                <path
                                   d="M 0,0 H 8.261"
                                   style="fill:none;stroke:#231f20;stroke-width:0.5;stroke-linecap:butt;stroke-linejoin:miter;stroke-miterlimit:10;stroke-dasharray:none;stroke-opacity:1"
                                   id="path7569"
                                   inkscape:connector-curvature="0" />
                                <g
                                   id="g7571"
                                   transform="translate(0,-27.54)">
                                <path
                                   d="M 0,0 H 8.261"
                                   style="fill:none;stroke:#231f20;stroke-width:0.5;stroke-linecap:butt;stroke-linejoin:miter;stroke-miterlimit:10;stroke-dasharray:none;stroke-opacity:1"
                                   id="path7573"
                                   inkscape:connector-curvature="0" />
                                <g
                                   id="g7575"
                                   transform="translate(0,-13.77)">
                                <path
                                   d="M 0,0 H 8.261"
                                   style="fill:none;stroke:#231f20;stroke-width:0.5;stroke-linecap:butt;stroke-linejoin:miter;stroke-miterlimit:10;stroke-dasharray:none;stroke-opacity:1"
                                   id="path7577"
                                   inkscape:connector-curvature="0" />
                                <g
                                   id="g7579"
                                   transform="translate(0,-8.262)">
                                <path
                                   d="M 0,0 H 8.261"
                                   style="fill:none;stroke:#231f20;stroke-width:0.5;stroke-linecap:butt;stroke-linejoin:miter;stroke-miterlimit:10;stroke-dasharray:none;stroke-opacity:1"
                                   id="path7581"
                                   inkscape:connector-curvature="0" />
                                </g>
                                </g>
                                </g>
                                </g>
                                </g>
                                </g>
                                </g>
                                </g>
                                </g>
                                </g>
                                </g>
                                </g>
                                </g>
                                </g>
                                </g>
                                </g>
                              </g>
                            </g>
                          </g>
                        </g>
                      </g>
                    </g>
                  </g>
                </g>
              </g>
            </g>
          </g>
        </g>
      </g>
    </g>
    <g
       id="g7583"
       transform="matrix(0.35277777,0,0,-0.35277777,60.149069,112.06929)">
      <path
         d="m 0,0 c 0,-1.216 -0.987,-2.203 -2.203,-2.203 -1.216,0 -2.203,0.987 -2.203,2.203 0,1.217 0.987,2.203 2.203,2.203 C -0.987,2.203 0,1.217 0,0"
         style="fill:#231f20;fill-opacity:1;fill-rule:evenodd;stroke:none"
         id="path7585"
         inkscape:connector-curvature="0" />
    </g>
    <g
       id="g7587"
       transform="matrix(0.35277777,0,0,-0.35277777,60.149069,112.06929)">
      <path
         d="m 0,0 c 0,-1.216 -0.987,-2.203 -2.203,-2.203 -1.216,0 -2.203,0.987 -2.203,2.203 0,1.217 0.987,2.203 2.203,2.203 C -0.987,2.203 0,1.217 0,0 Z"
         style="fill:none;stroke:#231f20;stroke-width:0.5;stroke-linecap:butt;stroke-linejoin:miter;stroke-miterlimit:10;stroke-dasharray:none;stroke-opacity:1"
         id="path7589"
         inkscape:connector-curvature="0" />
    </g>
    <text
       y="78.056572"
       x="49.722725"
       style="font-style:italic;font-variant:normal;font-size:2.65722799px;font-family:Times;-inkscape-font-specification:Times-Italic;writing-mode:lr-tb;fill:#231f20;fill-opacity:1;fill-rule:nonzero;stroke:none;stroke-width:0.35277775"
       id="text7595">
      <tspan
         style="stroke-width:0.35277775"
         x="49.722725"
         y="78.056572"
         id="tspan7591">l</tspan>
      <tspan
         style="stroke-width:0.35277775"
         x="134.52788"
         y="77.08004"
         id="tspan7593">x</tspan>
    </text>
    <text
       y="77.744431"
       x="135.70782"
       style="font-variant:normal;font-weight:normal;font-size:1.99291217px;font-family:Times;-inkscape-font-specification:Times-Roman;writing-mode:lr-tb;fill:#231f20;fill-opacity:1;fill-rule:nonzero;stroke:none;stroke-width:0.35277775"
       id="text7599">
      <tspan
         style="stroke-width:0.35277775"
         x="135.70782 136.70409"
         y="77.744431"
         sodipodi:role="line"
         id="tspan7597">1</tspan>
    </text>
    <text
       y="77.080048"
       x="137.20218"
       style="font-variant:normal;font-weight:normal;font-size:2.65722799px;font-family:Times;-inkscape-font-specification:Times-Roman;writing-mode:lr-tb;fill:#231f20;fill-opacity:1;fill-rule:nonzero;stroke:none;stroke-width:0.35277775"
       id="text7603">
      <tspan
         style="stroke-width:0.35277775"
         x="137.20218 138.70088"
         y="77.080048"
         sodipodi:role="line"
         id="tspan7601">=</tspan>
    </text>
    <text
       y="77.080048"
       x="139.36543"
       style="font-style:italic;font-variant:normal;font-size:2.65722799px;font-family:Times;-inkscape-font-specification:Times-Italic;writing-mode:lr-tb;fill:#231f20;fill-opacity:1;fill-rule:nonzero;stroke:none;stroke-width:0.35277775"
       id="text7607">
      <tspan
         style="stroke-width:0.35277775"
         x="139.36543"
         y="77.080048"
         id="tspan7605">t</tspan>
    </text>
    <text
       y="77.744431"
       x="140.10414"
       style="font-style:italic;font-variant:normal;font-size:1.99291217px;font-family:Times;-inkscape-font-specification:Times-Italic;writing-mode:lr-tb;fill:#231f20;fill-opacity:1;fill-rule:nonzero;stroke:none;stroke-width:0.35277775"
       id="text7611">
      <tspan
         style="stroke-width:0.35277775"
         x="140.10414 141.54283 142.24454 143.12918"
         y="77.744431"
         sodipodi:role="line"
         id="tspan7609">mrca</tspan>
    </text>
    <text
       y="86.180939"
       x="134.52777"
       style="font-style:italic;font-variant:normal;font-size:2.65722799px;font-family:Times;-inkscape-font-specification:Times-Italic;writing-mode:lr-tb;fill:#231f20;fill-opacity:1;fill-rule:nonzero;stroke:none;stroke-width:0.35277775"
       id="text7615">
      <tspan
         style="stroke-width:0.35277775"
         x="134.52777"
         y="86.180939"
         id="tspan7613">x</tspan>
    </text>
    <text
       y="86.845322"
       x="135.70782"
       style="font-variant:normal;font-weight:normal;font-size:1.99291217px;font-family:Times;-inkscape-font-specification:Times-Roman;writing-mode:lr-tb;fill:#231f20;fill-opacity:1;fill-rule:nonzero;stroke:none;stroke-width:0.35277775"
       id="text7619">
      <tspan
         style="stroke-width:0.35277775"
         x="135.70782"
         y="86.845322"
         id="tspan7617">3</tspan>
    </text>
    <text
       y="90.691765"
       x="134.52777"
       style="font-style:italic;font-variant:normal;font-size:2.65722799px;font-family:Times;-inkscape-font-specification:Times-Italic;writing-mode:lr-tb;fill:#231f20;fill-opacity:1;fill-rule:nonzero;stroke:none;stroke-width:0.35277775"
       id="text7623">
      <tspan
         style="stroke-width:0.35277775"
         x="134.52777"
         y="90.691765"
         id="tspan7621">x</tspan>
    </text>
    <text
       y="91.356148"
       x="135.70782"
       style="font-variant:normal;font-weight:normal;font-size:1.99291217px;font-family:Times;-inkscape-font-specification:Times-Roman;writing-mode:lr-tb;fill:#231f20;fill-opacity:1;fill-rule:nonzero;stroke:none;stroke-width:0.35277775"
       id="text7627">
      <tspan
         style="stroke-width:0.35277775"
         x="135.70782"
         y="91.356148"
         id="tspan7625">4</tspan>
    </text>
    <text
       y="106.23646"
       x="134.52777"
       style="font-style:italic;font-variant:normal;font-size:2.65722799px;font-family:Times;-inkscape-font-specification:Times-Italic;writing-mode:lr-tb;fill:#231f20;fill-opacity:1;fill-rule:nonzero;stroke:none;stroke-width:0.35277775"
       id="text7631">
      <tspan
         style="stroke-width:0.35277775"
         x="134.52777"
         y="106.23646"
         id="tspan7629">x</tspan>
    </text>
    <text
       y="106.90074"
       x="135.70782"
       style="font-variant:normal;font-weight:normal;font-size:1.99291217px;font-family:Times;-inkscape-font-specification:Times-Roman;writing-mode:lr-tb;fill:#231f20;fill-opacity:1;fill-rule:nonzero;stroke:none;stroke-width:0.35277775"
       id="text7635">
      <tspan
         style="stroke-width:0.35277775"
         x="135.70782"
         y="106.90074"
         id="tspan7633">6</tspan>
    </text>
    <text
       y="112.05585"
       x="134.45616"
       style="font-variant:normal;font-weight:normal;font-size:2.65722799px;font-family:Times;-inkscape-font-specification:Times-Roman;writing-mode:lr-tb;fill:#231f20;fill-opacity:1;fill-rule:nonzero;stroke:none;stroke-width:0.35277775"
       id="text7639">
      <tspan
         style="stroke-width:0.35277775"
         x="134.45616"
         y="112.05585"
         id="tspan7637">0</tspan>
    </text>
    <text
       y="73.193886"
       x="134.52791"
       style="font-style:italic;font-variant:normal;font-size:2.65722799px;font-family:Times;-inkscape-font-specification:Times-Italic;writing-mode:lr-tb;fill:#231f20;fill-opacity:1;fill-rule:nonzero;stroke:none;stroke-width:0.35277775"
       id="text7643">
      <tspan
         style="stroke-width:0.35277775"
         x="134.52791"
         y="73.193886"
         id="tspan7641">x</tspan>
    </text>
    <text
       y="73.858406"
       x="135.70782"
       style="font-variant:normal;font-weight:normal;font-size:1.99291217px;font-family:Times;-inkscape-font-specification:Times-Roman;writing-mode:lr-tb;fill:#231f20;fill-opacity:1;fill-rule:nonzero;stroke:none;stroke-width:0.35277775"
       id="text7647">
      <tspan
         style="stroke-width:0.35277775"
         x="135.70782 136.70409"
         y="73.858406"
         sodipodi:role="line"
         id="tspan7645">0</tspan>
    </text>
    <text
       y="73.194023"
       x="137.20218"
       style="font-variant:normal;font-weight:normal;font-size:2.65722799px;font-family:Times;-inkscape-font-specification:Times-Roman;writing-mode:lr-tb;fill:#231f20;fill-opacity:1;fill-rule:nonzero;stroke:none;stroke-width:0.35277775"
       id="text7651">
      <tspan
         style="stroke-width:0.35277775"
         x="137.20218 138.70088"
         y="73.194023"
         sodipodi:role="line"
         id="tspan7649">=</tspan>
    </text>
    <text
       y="73.194023"
       x="139.36543"
       style="font-style:italic;font-variant:normal;font-size:2.65722799px;font-family:Times;-inkscape-font-specification:Times-Italic;writing-mode:lr-tb;fill:#231f20;fill-opacity:1;fill-rule:nonzero;stroke:none;stroke-width:0.35277775"
       id="text7655">
      <tspan
         style="stroke-width:0.35277775"
         x="139.36543"
         y="73.194023"
         id="tspan7653">t</tspan>
    </text>
    <text
       y="73.858406"
       x="140.10414"
       style="font-style:italic;font-variant:normal;font-size:1.99291217px;font-family:Times;-inkscape-font-specification:Times-Italic;writing-mode:lr-tb;fill:#231f20;fill-opacity:1;fill-rule:nonzero;stroke:none;stroke-width:0.35277775"
       id="text7659">
      <tspan
         style="stroke-width:0.35277775"
         x="140.10414 141.10039"
         y="73.858406"
         sodipodi:role="line"
         id="tspan7657">or</tspan>
    </text>
    <text
       y="109.14616"
       x="134.52037"
       style="font-style:italic;font-variant:normal;font-size:2.65722799px;font-family:Times;-inkscape-font-specification:Times-Italic;writing-mode:lr-tb;fill:#231f20;fill-opacity:1;fill-rule:nonzero;stroke:none;stroke-width:0.35277775"
       id="text7663">
      <tspan
         style="stroke-width:0.35277775"
         x="134.52037"
         y="109.14616"
         id="tspan7661">y</tspan>
    </text>
    <text
       y="109.81045"
       x="135.70041"
       style="font-variant:normal;font-weight:normal;font-size:1.99291217px;font-family:Times;-inkscape-font-specification:Times-Roman;writing-mode:lr-tb;fill:#231f20;fill-opacity:1;fill-rule:nonzero;stroke:none;stroke-width:0.35277775"
       id="text7667">
      <tspan
         style="stroke-width:0.35277775"
         x="135.70041"
         y="109.81045"
         id="tspan7665">2</tspan>
    </text>
    <text
       y="104.28349"
       x="134.52777"
       style="font-style:italic;font-variant:normal;font-size:2.65722799px;font-family:Times;-inkscape-font-specification:Times-Italic;writing-mode:lr-tb;fill:#231f20;fill-opacity:1;fill-rule:nonzero;stroke:none;stroke-width:0.35277775"
       id="text7671">
      <tspan
         style="stroke-width:0.35277775"
         x="134.52777"
         y="104.28349"
         id="tspan7669">x</tspan>
    </text>
    <text
       y="104.94776"
       x="135.70782"
       style="font-variant:normal;font-weight:normal;font-size:1.99291217px;font-family:Times;-inkscape-font-specification:Times-Roman;writing-mode:lr-tb;fill:#231f20;fill-opacity:1;fill-rule:nonzero;stroke:none;stroke-width:0.35277775"
       id="text7675">
      <tspan
         style="stroke-width:0.35277775"
         x="135.70782"
         y="104.94776"
         id="tspan7673">5</tspan>
    </text>
    <text
       y="83.251434"
       x="134.52777"
       style="font-style:italic;font-variant:normal;font-size:2.65722799px;font-family:Times;-inkscape-font-specification:Times-Italic;writing-mode:lr-tb;fill:#231f20;fill-opacity:1;fill-rule:nonzero;stroke:none;stroke-width:0.35277775"
       id="text7679">
      <tspan
         style="stroke-width:0.35277775"
         x="134.52777"
         y="83.251434"
         id="tspan7677">x</tspan>
    </text>
    <text
       y="83.915825"
       x="135.70782"
       style="font-variant:normal;font-weight:normal;font-size:1.99291217px;font-family:Times;-inkscape-font-specification:Times-Roman;writing-mode:lr-tb;fill:#231f20;fill-opacity:1;fill-rule:nonzero;stroke:none;stroke-width:0.35277775"
       id="text7683">
      <tspan
         style="stroke-width:0.35277775"
         x="135.70782"
         y="83.915825"
         id="tspan7681">2</tspan>
    </text>
    <text
       y="94.577927"
       x="134.52037"
       style="font-style:italic;font-variant:normal;font-size:2.65722799px;font-family:Times;-inkscape-font-specification:Times-Italic;writing-mode:lr-tb;fill:#231f20;fill-opacity:1;fill-rule:nonzero;stroke:none;stroke-width:0.35277775"
       id="text7687">
      <tspan
         style="stroke-width:0.35277775"
         x="134.52037"
         y="94.577927"
         id="tspan7685">y</tspan>
    </text>
    <text
       y="95.242317"
       x="135.70041"
       style="font-variant:normal;font-weight:normal;font-size:1.99291217px;font-family:Times;-inkscape-font-specification:Times-Roman;writing-mode:lr-tb;fill:#231f20;fill-opacity:1;fill-rule:nonzero;stroke:none;stroke-width:0.35277775"
       id="text7691">
      <tspan
         style="stroke-width:0.35277775"
         x="135.70041"
         y="95.242317"
         id="tspan7689">1</tspan>
    </text>
    <text
       y="78.056572"
       x="72.003571"
       style="font-style:italic;font-variant:normal;font-size:2.65722799px;font-family:Times;-inkscape-font-specification:Times-Italic;writing-mode:lr-tb;fill:#231f20;fill-opacity:1;fill-rule:nonzero;stroke:none;stroke-width:0.35277775"
       id="text7695">
      <tspan
         style="stroke-width:0.35277775"
         x="72.003571"
         y="78.056572"
         id="tspan7693">r</tspan>
    </text>
  </g>
</svg>
